# Blender 4.4.1
# www.blender.org
o Cube.004
v -0.219882 1.343693 0.254938
v -0.219882 1.034291 0.254938
v -0.219882 1.343693 -2.478154
v -0.219882 1.034291 -2.478154
v 2.863800 1.343693 0.254938
v 2.863800 1.034291 0.254938
v 2.863800 1.343693 -2.478154
v 2.863800 1.034291 -2.478154
v -0.144623 -1.000000 0.141193
v -0.144623 1.000000 0.141193
v -0.144623 -1.000000 -0.141192
v -0.144623 1.000000 -0.141192
v 0.144623 -1.000000 0.141193
v 0.144623 1.000000 0.141193
v 0.144623 -1.000000 -0.141192
v 0.144623 1.000000 -0.141192
v -0.144623 -1.000000 -2.088865
v -0.144623 1.000000 -2.088865
v -0.144623 -1.000000 -2.371250
v -0.144623 1.000000 -2.371250
v 0.144623 -1.000000 -2.088865
v 0.144623 1.000000 -2.088865
v 0.144623 -1.000000 -2.371250
v 0.144623 1.000000 -2.371250
v 2.512557 -1.000000 0.141193
v 2.512557 1.000000 0.141193
v 2.512557 -1.000000 -0.141192
v 2.512557 1.000000 -0.141192
v 2.801803 -1.000000 0.141193
v 2.801803 1.000000 0.141193
v 2.801803 -1.000000 -0.141192
v 2.801803 1.000000 -0.141192
v 2.512557 -1.000000 -2.088865
v 2.512557 1.000000 -2.088865
v 2.512557 -1.000000 -2.371250
v 2.512557 1.000000 -2.371250
v 2.801803 -1.000000 -2.088865
v 2.801803 1.000000 -2.088865
v 2.801803 -1.000000 -2.371250
v 2.801803 1.000000 -2.371250
vn 1.0000 -0.0000 -0.0000
vn -0.0000 -0.0000 1.0000
vn -1.0000 -0.0000 -0.0000
vn -0.0000 -0.0000 -1.0000
vn -0.0000 -1.0000 -0.0000
vn -0.0000 1.0000 -0.0000
vt 0.625000 0.000000
vt 0.375000 0.250000
vt 0.375000 0.000000
vt 0.625000 0.250000
vt 0.375000 0.500000
vt 0.625000 0.500000
vt 0.375000 0.750000
vt 0.625000 0.750000
vt 0.375000 1.000000
vt 0.125000 0.750000
vt 0.125000 0.500000
vt 0.875000 0.500000
vt 0.625000 1.000000
vt 0.875000 0.750000
s 0
f 2/1/1 3/2/1 1/3/1
f 4/4/2 7/5/2 3/2/2
f 8/6/3 5/7/3 7/5/3
f 6/8/4 1/9/4 5/7/4
f 7/5/5 1/10/5 3/11/5
f 4/12/6 6/8/6 8/6/6
f 10/1/3 11/2/3 9/3/3
f 12/4/4 15/5/4 11/2/4
f 16/6/1 13/7/1 15/5/1
f 14/8/2 9/9/2 13/7/2
f 15/5/5 9/10/5 11/11/5
f 12/12/6 14/8/6 16/6/6
f 18/1/3 19/2/3 17/3/3
f 20/4/4 23/5/4 19/2/4
f 24/6/1 21/7/1 23/5/1
f 22/8/2 17/9/2 21/7/2
f 23/5/5 17/10/5 19/11/5
f 20/12/6 22/8/6 24/6/6
f 26/1/3 27/2/3 25/3/3
f 28/4/4 31/5/4 27/2/4
f 32/6/1 29/7/1 31/5/1
f 30/8/2 25/9/2 29/7/2
f 31/5/5 25/10/5 27/11/5
f 28/12/6 30/8/6 32/6/6
f 34/1/3 35/2/3 33/3/3
f 36/4/4 39/5/4 35/2/4
f 40/6/1 37/7/1 39/5/1
f 38/8/2 33/9/2 37/7/2
f 39/5/5 33/10/5 35/11/5
f 36/12/6 38/8/6 40/6/6
f 2/1/1 4/4/1 3/2/1
f 4/4/2 8/6/2 7/5/2
f 8/6/3 6/8/3 5/7/3
f 6/8/4 2/13/4 1/9/4
f 7/5/5 5/7/5 1/10/5
f 4/12/6 2/14/6 6/8/6
f 10/1/3 12/4/3 11/2/3
f 12/4/4 16/6/4 15/5/4
f 16/6/1 14/8/1 13/7/1
f 14/8/2 10/13/2 9/9/2
f 15/5/5 13/7/5 9/10/5
f 12/12/6 10/14/6 14/8/6
f 18/1/3 20/4/3 19/2/3
f 20/4/4 24/6/4 23/5/4
f 24/6/1 22/8/1 21/7/1
f 22/8/2 18/13/2 17/9/2
f 23/5/5 21/7/5 17/10/5
f 20/12/6 18/14/6 22/8/6
f 26/1/3 28/4/3 27/2/3
f 28/4/4 32/6/4 31/5/4
f 32/6/1 30/8/1 29/7/1
f 30/8/2 26/13/2 25/9/2
f 31/5/5 29/7/5 25/10/5
f 28/12/6 26/14/6 30/8/6
f 34/1/3 36/4/3 35/2/3
f 36/4/4 40/6/4 39/5/4
f 40/6/1 38/8/1 37/7/1
f 38/8/2 34/13/2 33/9/2
f 39/5/5 37/7/5 33/10/5
f 36/12/6 34/14/6 38/8/6
