# Blender 4.4.3
# www.blender.org
o Cube
v -0.061163 0.024832 0.050533
v -0.061163 -0.024832 0.050533
v -0.061163 0.024832 -0.050533
v -0.061163 -0.024832 -0.050533
v 0.061163 0.024832 0.050533
v 0.061163 -0.024832 0.050533
v 0.061163 0.024832 -0.050533
v 0.061163 -0.024832 -0.050533
v 0.074566 -0.030273 0.000000
v -0.000000 -0.030273 0.061607
v -0.074566 0.000000 0.061607
v 0.074566 -0.000000 -0.061607
v -0.074566 0.000000 -0.061607
v 0.074566 -0.000000 0.061607
v 0.000000 0.030273 -0.061607
v -0.074566 0.030273 -0.000000
v 0.000000 -0.030273 -0.061607
v 0.074566 0.030273 0.000000
v -0.000000 0.030273 0.061607
v -0.074566 -0.030273 -0.000000
v 0.000000 0.041693 0.000000
v -0.000000 0.000000 -0.084846
v 0.102693 0.000000 0.000000
v 0.000000 -0.041693 -0.000000
v -0.102693 0.000000 0.000000
v -0.000000 0.000000 0.084846
vn -0.3424 0.8433 0.4144
vn -0.3424 -0.8433 0.4144
vn -0.3424 0.8433 -0.4144
vn -0.3424 -0.8433 -0.4144
vn 0.3424 0.8433 0.4144
vn 0.3424 -0.8433 0.4144
vn 0.3424 0.8433 -0.4144
vn 0.3424 -0.8433 -0.4144
vn 0.3762 -0.9265 -0.0000
vn -0.0000 -0.8975 0.4410
vn -0.6369 -0.0000 0.7709
vn 0.6369 -0.0000 -0.7709
vn -0.6369 -0.0000 -0.7709
vn 0.6369 -0.0000 0.7709
vn -0.0000 0.8975 -0.4410
vn -0.3762 0.9265 -0.0000
vn -0.0000 -0.8975 -0.4410
vn 0.3762 0.9265 -0.0000
vn -0.0000 0.8975 0.4410
vn -0.3762 -0.9265 -0.0000
vn -0.0000 1.0000 -0.0000
vn -0.0000 -0.0000 -1.0000
vn 1.0000 -0.0000 -0.0000
vn -0.0000 -1.0000 -0.0000
vn -1.0000 -0.0000 -0.0000
vn -0.0000 -0.0000 1.0000
vt 0.268013 0.126276
vt 0.157704 0.010761
vt 0.322572 0.049616
vt 0.648540 0.278995
vt 0.518831 0.139023
vt 0.655906 0.142839
vt 0.398653 0.307882
vt 0.351260 0.178057
vt 0.344094 0.062320
vt 0.470326 0.010761
vt 0.018127 0.713153
vt 0.147835 0.573181
vt 0.129826 0.744294
vt 0.398653 0.560434
vt 0.508962 0.444919
vt 0.536840 0.558182
vt 0.322572 0.496478
vt 0.315406 0.612215
vt 0.268013 0.742041
vt 0.677428 0.062320
vt 0.852165 0.139023
vt 0.684594 0.178057
vt 0.508962 0.423397
vt 0.344094 0.384542
vt 0.981873 0.278995
vt 0.870174 0.310135
vt 0.731987 0.307882
vt 0.677428 0.805997
vt 0.852165 0.729294
vt 0.803659 0.857556
vt 0.731987 0.560434
vt 0.684594 0.690260
vt 0.981873 0.589322
vt 0.989239 0.725478
vt 0.157704 0.857556
vt 0.322572 0.818700
vt 0.842296 0.444919
vt 0.870174 0.558182
vt 0.344094 0.805997
vt 0.518831 0.729294
vt 0.470326 0.857556
vt 0.648540 0.589322
vt 0.655906 0.725478
vt 0.842296 0.423397
vt 0.677428 0.384542
vt 0.018127 0.155164
vt 0.147835 0.295135
vt 0.010761 0.291319
vt 0.315406 0.256101
vt 0.322572 0.371839
vt 0.196341 0.423397
vt 0.129826 0.124023
vt 0.536840 0.310135
vt 0.010761 0.576998
vt 0.344094 0.483775
vt 0.196341 0.444919
vt 0.803659 0.010761
vt 0.989239 0.142839
vt 0.677428 0.483775
vt 0.351260 0.690260
s 1
f 1/1/1 21/2/21 16/3/16
f 5/4/5 21/5/21 19/6/19
f 21/5/21 7/7/7 15/8/15
f 21/5/21 3/9/3 16/10/16
f 4/11/4 22/12/22 17/13/17
f 3/14/3 22/15/22 13/16/13
f 22/12/22 7/17/7 12/18/12
f 22/12/22 8/19/8 17/13/17
f 8/20/8 23/21/23 9/22/9
f 7/7/7 23/23/23 12/24/12
f 23/21/23 5/25/5 14/26/14
f 23/21/23 6/27/6 9/22/9
f 6/28/6 24/29/24 9/30/9
f 2/31/2 24/29/24 10/32/10
f 24/29/24 4/33/4 17/34/17
f 24/35/24 8/19/8 9/36/9
f 2/31/2 25/37/25 20/38/20
f 1/39/1 25/40/25 11/41/11
f 25/40/25 3/14/3 13/16/13
f 25/40/25 4/42/4 20/43/20
f 6/27/6 26/44/26 10/45/10
f 5/46/5 26/47/26 14/48/14
f 26/47/26 1/1/1 11/49/11
f 26/47/26 2/50/2 10/51/10
f 1/1/1 19/52/19 21/2/21
f 5/4/5 18/53/18 21/5/21
f 21/5/21 18/53/18 7/7/7
f 21/5/21 15/8/15 3/9/3
f 4/11/4 13/54/13 22/12/22
f 3/14/3 15/55/15 22/15/22
f 22/12/22 15/56/15 7/17/7
f 22/12/22 12/18/12 8/19/8
f 8/20/8 12/57/12 23/21/23
f 7/7/7 18/53/18 23/23/23
f 23/21/23 18/58/18 5/25/5
f 23/21/23 14/26/14 6/27/6
f 6/28/6 10/32/10 24/29/24
f 2/31/2 20/38/20 24/29/24
f 24/29/24 20/38/20 4/33/4
f 24/35/24 17/13/17 8/19/8
f 2/31/2 11/59/11 25/37/25
f 1/39/1 16/60/16 25/40/25
f 25/40/25 16/60/16 3/14/3
f 25/40/25 13/16/13 4/42/4
f 6/27/6 14/26/14 26/44/26
f 5/46/5 19/52/19 26/47/26
f 26/47/26 19/52/19 1/1/1
f 26/47/26 11/49/11 2/50/2
