# Blender 4.4.3
# www.blender.org
o Sphere.001
v -0.285922 1.240372 0.132216
v -0.252073 1.245922 0.131778
v -0.184517 1.238381 0.122687
v -0.125696 1.207335 0.103968
v -0.102451 1.184351 0.091843
v -0.072724 1.127845 0.064371
v -0.068752 1.064663 0.036150
v -0.091139 1.004423 0.011476
v -0.111299 0.978330 0.001681
v -0.136477 0.956297 -0.005893
v -0.285935 1.227257 0.159177
v -0.252097 1.220198 0.184664
v -0.217868 1.207904 0.205338
v -0.184561 1.190848 0.220407
v -0.153458 1.169686 0.229289
v -0.125754 1.145231 0.231645
v -0.102512 1.118422 0.227384
v -0.084627 1.090290 0.216669
v -0.072786 1.061916 0.199912
v -0.067443 1.034390 0.177758
v -0.068804 1.008771 0.151056
v -0.076817 0.986042 0.120835
v -0.091174 0.967077 0.088255
v -0.111323 0.952606 0.054567
v -0.136489 0.943183 0.021067
v -0.290618 1.213956 0.181469
v -0.261283 1.194107 0.228390
v -0.231204 1.170026 0.268819
v -0.201535 1.142638 0.301202
v -0.173418 1.112997 0.324294
v -0.147931 1.082241 0.337209
v -0.126056 1.051552 0.339450
v -0.108632 1.022110 0.330931
v -0.096329 0.995046 0.311978
v -0.089621 0.971401 0.283322
v -0.088764 0.952082 0.246062
v -0.093791 0.937832 0.201630
v -0.104510 0.929199 0.151735
v -0.120509 0.926515 0.098293
v -0.141172 0.929882 0.043359
v -0.299259 1.202493 0.195697
v -0.278233 1.171621 0.256299
v -0.255812 1.137381 0.309337
v -0.232855 1.101089 0.352772
v -0.210246 1.064141 0.384935
v -0.188852 1.027955 0.404589
v -0.169497 0.993923 0.410980
v -0.152925 0.963352 0.403862
v -0.139771 0.937417 0.383508
v -0.130542 0.917115 0.350701
v -0.125592 0.903226 0.306702
v -0.125111 0.896283 0.253200
v -0.129118 0.896554 0.192253
v -0.137459 0.904029 0.126203
v -0.149813 0.918419 0.057587
v -0.310542 1.194613 0.199696
v -0.300367 1.156163 0.264144
v -0.287944 1.114940 0.320725
v -0.273752 1.072528 0.367266
v -0.258335 1.030556 0.401978
v -0.242287 0.990637 0.423527
v -0.226223 0.954306 0.431084
v -0.210762 0.922959 0.424360
v -0.196497 0.897801 0.403612
v -0.183976 0.879797 0.369639
v -0.173681 0.869640 0.323745
v -0.166008 0.867721 0.267695
v -0.161251 0.874113 0.203641
v -0.159592 0.888571 0.134047
v -0.161097 0.910538 0.061586
v -0.322750 1.191516 0.192857
v -0.324314 1.150087 0.250728
v -0.322710 1.106120 0.301249
v -0.318000 1.061301 0.342478
v -0.310366 1.017355 0.372830
v -0.300100 0.975969 0.391139
v -0.287598 0.938735 0.396701
v -0.273339 0.907083 0.389303
v -0.257871 0.882229 0.369230
v -0.241790 0.865129 0.337251
v -0.225712 0.856439 0.294597
v -0.210256 0.856495 0.242906
v -0.196016 0.865293 0.184165
v -0.183539 0.882495 0.120632
v -0.173305 0.907441 0.054747
v -0.334024 1.193672 0.176221
v -0.346429 1.154319 0.218095
v -0.354816 1.112262 0.253874
v -0.358864 1.069119 0.282180
v -0.358416 1.026548 0.301927
v -0.353491 0.986184 0.312356
v -0.344277 0.949578 0.313066
v -0.331128 0.918139 0.304030
v -0.314550 0.893072 0.285595
v -0.295180 0.875343 0.258469
v -0.273762 0.865632 0.223694
v -0.251119 0.864313 0.182609
v -0.228122 0.871435 0.136790
v -0.205654 0.886726 0.087999
v -0.184579 0.909598 0.038111
v -0.342648 1.200755 0.152320
v -0.363345 1.168212 0.171213
v -0.379375 1.132432 0.185811
v -0.390121 1.094791 0.195554
v -0.395170 1.056735 0.200065
v -0.394330 1.019726 0.199173
v -0.387631 0.985187 0.192912
v -0.375332 0.954444 0.181521
v -0.357905 0.928681 0.165440
v -0.336019 0.908885 0.145286
v -0.310516 0.895819 0.121832
v -0.282377 0.889985 0.095982
v -0.252681 0.891606 0.068728
v -0.222571 0.900620 0.041117
v -0.193203 0.916681 0.014210
v -0.347309 1.211686 0.124794
v -0.372487 1.189653 0.117220
v -0.392647 1.163560 0.107425
v -0.407013 1.134409 0.095786
v -0.415034 1.103320 0.082751
v -0.416401 1.071489 0.068821
v -0.411061 1.040138 0.054530
v -0.399221 1.010472 0.040429
v -0.381335 0.983632 0.027058
v -0.358090 0.960649 0.014933
v -0.330380 0.942405 0.004518
v -0.299269 0.929603 -0.003786
v -0.265953 0.922733 -0.009659
v -0.231713 0.922061 -0.012877
v -0.197863 0.927611 -0.013315
v -0.347297 1.224800 0.097834
v -0.372463 1.215377 0.064334
v -0.392612 1.200906 0.030647
v -0.406969 1.181941 -0.001934
v -0.414982 1.159212 -0.032155
v -0.416343 1.133593 -0.058857
v -0.411000 1.106067 -0.081011
v -0.399159 1.077693 -0.097768
v -0.381274 1.049561 -0.108483
v -0.358032 1.022752 -0.112744
v -0.330328 0.998297 -0.110388
v -0.299224 0.977135 -0.101506
v -0.265918 0.960079 -0.086437
v -0.231689 0.947785 -0.065763
v -0.197851 0.940726 -0.040276
v -0.165706 0.939172 -0.010957
v -0.342614 1.238101 0.075542
v -0.363277 1.241469 0.020608
v -0.379276 1.238784 -0.032834
v -0.389995 1.230151 -0.082729
v -0.395022 1.215901 -0.127161
v -0.394165 1.196582 -0.164421
v -0.387456 1.172937 -0.193077
v -0.375154 1.145873 -0.212030
v -0.357730 1.116431 -0.220549
v -0.335855 1.085742 -0.218308
v -0.310368 1.054986 -0.205393
v -0.282250 1.025345 -0.182301
v -0.252582 0.997958 -0.149918
v -0.222502 0.973876 -0.109489
v -0.193168 0.954027 -0.062568
v -0.333972 1.249564 0.061314
v -0.346327 1.263955 -0.007302
v -0.354668 1.271429 -0.073352
v -0.358675 1.271700 -0.134299
v -0.358194 1.264758 -0.187801
v -0.353244 1.250868 -0.231800
v -0.344015 1.230566 -0.264607
v -0.330861 1.204631 -0.284961
v -0.314288 1.174060 -0.292079
v -0.294933 1.140028 -0.285688
v -0.273540 1.103842 -0.266034
v -0.250931 1.066894 -0.233871
v -0.227974 1.030602 -0.190436
v -0.205552 0.996362 -0.137398
v -0.184527 0.965490 -0.076796
v -0.318080 1.228811 0.129858
v -0.322689 1.257445 0.057315
v -0.324193 1.279412 -0.015146
v -0.322535 1.293870 -0.084740
v -0.317778 1.300262 -0.148793
v -0.310104 1.298343 -0.204844
v -0.299810 1.288186 -0.250738
v -0.287289 1.270183 -0.284711
v -0.273024 1.245024 -0.305459
v -0.257562 1.213677 -0.312183
v -0.241499 1.177346 -0.304626
v -0.225450 1.137427 -0.283077
v -0.210034 1.095455 -0.248365
v -0.195842 1.053043 -0.201824
v -0.183419 1.011820 -0.145242
v -0.173244 0.973370 -0.080795
v -0.310481 1.260542 0.064154
v -0.300246 1.285488 -0.001730
v -0.287769 1.302690 -0.065264
v -0.273530 1.311488 -0.124005
v -0.258074 1.311544 -0.175696
v -0.241996 1.302854 -0.218350
v -0.225915 1.285754 -0.250328
v -0.210447 1.260900 -0.270402
v -0.196188 1.229248 -0.277800
v -0.183686 1.192014 -0.272238
v -0.173420 1.150628 -0.253929
v -0.165785 1.106682 -0.223576
v -0.161076 1.061864 -0.182348
v -0.159472 1.017896 -0.131827
v -0.161035 0.976467 -0.073955
v -0.299207 1.258385 0.080790
v -0.278131 1.281257 0.030902
v -0.255663 1.296548 -0.017889
v -0.232666 1.303670 -0.063707
v -0.210024 1.302351 -0.104793
v -0.188606 1.292640 -0.139567
v -0.169236 1.274911 -0.166693
v -0.152658 1.249844 -0.185129
v -0.139509 1.218405 -0.194165
v -0.130295 1.181799 -0.193455
v -0.125370 1.141436 -0.183026
v -0.124922 1.098864 -0.163279
v -0.128970 1.055721 -0.134972
v -0.137357 1.013664 -0.099194
v -0.149761 0.974311 -0.057319
v -0.290583 1.251302 0.104691
v -0.261215 1.267363 0.077784
v -0.231105 1.276377 0.050173
v -0.201409 1.277998 0.022919
v -0.173269 1.272164 -0.002931
v -0.147767 1.259098 -0.026384
v -0.125881 1.239302 -0.046539
v -0.108454 1.213539 -0.062620
v -0.096155 1.182796 -0.074011
v -0.089456 1.148257 -0.080272
v -0.088615 1.111248 -0.081164
v -0.093665 1.073192 -0.076652
v -0.104411 1.035551 -0.066910
v -0.120441 0.999771 -0.052312
v -0.141138 0.967228 -0.033419
v -0.217833 1.245250 0.128560
v -0.153406 1.225578 0.114383
v -0.084565 1.157511 0.078472
v -0.067385 1.096494 0.050081
v -0.076773 1.033574 0.023115
v -0.476475 0.947022 0.270905
v -1.176056 1.047870 -0.404653
v -0.205439 1.082525 -0.292114
v 0.226457 1.269317 -1.149166
v 0.428544 1.089918 -0.209517
v 1.396131 1.077862 -0.069541
v 0.549332 0.958983 0.404550
v 0.716516 0.738090 1.342217
v -0.010000 0.870669 0.701467
v -0.873183 0.719554 1.135106
v -1.164300 0.757428 -0.468895
v -0.467854 0.734056 0.223800
v -0.196819 0.869560 -0.339219
v 0.238213 0.978875 -1.213408
v 0.437164 0.876952 -0.256622
v 1.407887 0.787420 -0.133783
v 0.557952 0.746018 0.357445
v 0.728272 0.447648 1.277975
v -0.001380 0.657703 0.654362
v -0.861427 0.429112 1.070864
v -1.183089 1.221629 -0.366219
v -0.676874 1.085926 0.339942
v -0.307237 1.270725 -0.427902
v 0.219424 1.443076 -1.110732
v 0.557388 1.280807 -0.315256
v 1.389098 1.251622 -0.031107
v 0.722119 1.102238 0.522207
v 0.709483 0.911850 1.380650
v -0.040698 0.981795 0.927142
v -0.880216 0.893313 1.173540
v 0.371776 1.254440 0.147086
v 0.405098 1.246444 0.145512
v 0.464058 1.212874 0.135503
v 0.505476 1.160492 0.117760
v 0.517503 1.129658 0.106796
v 0.521898 1.064581 0.082776
v 0.499945 1.003268 0.059050
v 0.454988 0.955052 0.039228
v 0.425910 0.938262 0.031762
v 0.393870 0.927275 0.026330
v 0.368014 1.243917 0.174907
v 0.397718 1.225803 0.200084
v 0.425544 1.202443 0.220827
v 0.450422 1.174735 0.236339
v 0.471396 1.143744 0.246023
v 0.487660 1.110661 0.249509
v 0.498589 1.076757 0.246660
v 0.503764 1.043335 0.237588
v 0.502984 1.011680 0.222640
v 0.496281 0.983008 0.202392
v 0.483911 0.958420 0.177621
v 0.466351 0.938863 0.149279
v 0.444274 0.925086 0.118455
v 0.418530 0.917621 0.086334
v 0.390108 0.916753 0.054151
v 0.359650 1.234760 0.198186
v 0.381312 1.207840 0.245749
v 0.401726 1.176365 0.287122
v 0.420108 1.141544 0.320717
v 0.435751 1.104715 0.345241
v 0.448053 1.067295 0.359754
v 0.456543 1.030720 0.363696
v 0.460893 0.996396 0.356916
v 0.460938 0.965643 0.339676
v 0.456674 0.939642 0.312637
v 0.448266 0.919392 0.276839
v 0.436037 0.905672 0.233657
v 0.420457 0.899008 0.184750
v 0.402124 0.899658 0.131999
v 0.381744 0.907595 0.077430
v 0.347958 1.228361 0.213381
v 0.358378 1.195290 0.275555
v 0.368431 1.158145 0.330393
v 0.377731 1.118354 0.375791
v 0.385920 1.077447 0.410001
v 0.392685 1.036996 0.431711
v 0.397764 0.998555 0.440086
v 0.400963 0.963601 0.434803
v 0.402159 0.933478 0.416066
v 0.401306 0.909343 0.384595
v 0.398436 0.892124 0.341599
v 0.393660 0.882482 0.288730
v 0.387161 0.880788 0.228022
v 0.379190 0.887108 0.161805
v 0.370052 0.901197 0.092625
v 0.334718 1.225697 0.218178
v 0.332407 1.190063 0.284963
v 0.330727 1.150557 0.344053
v 0.329742 1.108697 0.393176
v 0.329492 1.066091 0.430444
v 0.329985 1.024378 0.454426
v 0.331202 0.985159 0.464200
v 0.333097 0.949943 0.459389
v 0.335597 0.920082 0.440180
v 0.338605 0.896725 0.407310
v 0.342007 0.880768 0.362042
v 0.345671 0.872824 0.306116
v 0.349457 0.873200 0.241681
v 0.353219 0.881881 0.171214
v 0.356812 0.898533 0.097422
v 0.321946 1.227172 0.211846
v 0.307352 1.192955 0.272543
v 0.294353 1.154756 0.326021
v 0.283448 1.114041 0.370226
v 0.275055 1.072376 0.403458
v 0.269498 1.031361 0.424441
v 0.266990 0.992572 0.432367
v 0.267627 0.957501 0.426933
v 0.271385 0.927495 0.408347
v 0.278119 0.903708 0.377324
v 0.287571 0.887052 0.335055
v 0.299377 0.878169 0.283166
v 0.313084 0.877400 0.223650
v 0.328165 0.884773 0.158793
v 0.344040 0.900007 0.091090
v 0.311585 1.232561 0.195350
v 0.287029 1.203526 0.240184
v 0.264849 1.170103 0.279044
v 0.245896 1.133574 0.310435
v 0.230899 1.095344 0.333151
v 0.220434 1.056882 0.346320
v 0.214904 1.019665 0.349434
v 0.214520 0.985125 0.342375
v 0.219299 0.954588 0.325414
v 0.229055 0.929229 0.299203
v 0.243414 0.910020 0.264748
v 0.261825 0.897702 0.223374
v 0.283579 0.892747 0.176672
v 0.307841 0.895345 0.126435
v 0.333679 0.905397 0.074594
v 0.305214 1.241044 0.171200
v 0.274531 1.220167 0.192813
v 0.246705 1.194261 0.210272
v 0.222803 1.164322 0.222905
v 0.203744 1.131499 0.230227
v 0.190262 1.097056 0.231956
v 0.182873 1.062314 0.228027
v 0.181862 1.028609 0.218589
v 0.187268 0.997237 0.204007
v 0.198882 0.969402 0.184839
v 0.216260 0.946176 0.161824
v 0.238732 0.928450 0.135844
v 0.265435 0.916905 0.107900
v 0.295344 0.911985 0.079064
v 0.327308 0.913880 0.050444
v 0.303802 1.251330 0.143074
v 0.271761 1.240344 0.137642
v 0.242683 1.223553 0.130176
v 0.217685 1.201603 0.120962
v 0.197726 1.175338 0.110354
v 0.183574 1.145766 0.098761
v 0.175774 1.114025 0.086627
v 0.174624 1.081333 0.074420
v 0.180168 1.048947 0.062608
v 0.192195 1.018113 0.051644
v 0.210241 0.990014 0.041951
v 0.233614 0.965731 0.033901
v 0.261414 0.946197 0.027804
v 0.292574 0.932162 0.023892
v 0.325896 0.924166 0.022318
v 0.307564 1.261853 0.115253
v 0.279141 1.260985 0.083070
v 0.253397 1.253519 0.050949
v 0.231321 1.239743 0.020125
v 0.213760 1.220185 -0.008217
v 0.201390 1.195598 -0.032988
v 0.194687 1.166925 -0.053236
v 0.193908 1.135270 -0.068184
v 0.199082 1.101848 -0.077256
v 0.210011 1.067944 -0.080105
v 0.226275 1.034861 -0.076619
v 0.247249 1.003870 -0.066935
v 0.272127 0.976163 -0.051423
v 0.299953 0.952803 -0.030680
v 0.329658 0.934688 -0.005503
v 0.360099 0.922516 0.023141
v 0.315927 1.271010 0.091974
v 0.295547 1.278947 0.037405
v 0.277214 1.279597 -0.015346
v 0.261634 1.272934 -0.064253
v 0.249406 1.259213 -0.107435
v 0.240998 1.238964 -0.143233
v 0.236734 1.212963 -0.170272
v 0.236778 1.182209 -0.187512
v 0.241129 1.147886 -0.194292
v 0.249618 1.111310 -0.190350
v 0.261921 1.073890 -0.175837
v 0.277563 1.037061 -0.151313
v 0.295945 1.002241 -0.117718
v 0.316359 0.970765 -0.076345
v 0.338021 0.943846 -0.028782
v 0.327619 1.277408 0.076779
v 0.318481 1.291497 0.007599
v 0.310510 1.297817 -0.058618
v 0.304012 1.296123 -0.119326
v 0.299236 1.286481 -0.172195
v 0.296366 1.269262 -0.215190
v 0.295512 1.245127 -0.246662
v 0.296708 1.215004 -0.265399
v 0.299907 1.180050 -0.270681
v 0.304986 1.141609 -0.262307
v 0.311751 1.101158 -0.240597
v 0.319940 1.060251 -0.206387
v 0.329240 1.020460 -0.160989
v 0.339293 0.983316 -0.106151
v 0.349713 0.950244 -0.043977
v 0.337572 1.256089 0.146263
v 0.340859 1.280072 0.071982
v 0.344452 1.296724 -0.001810
v 0.348214 1.305405 -0.072277
v 0.352000 1.305781 -0.136712
v 0.355664 1.297838 -0.192638
v 0.359066 1.281881 -0.237905
v 0.362074 1.258523 -0.270776
v 0.364574 1.228662 -0.289985
v 0.366469 1.193446 -0.294796
v 0.367687 1.154227 -0.285022
v 0.368179 1.112514 -0.261040
v 0.367929 1.069909 -0.223772
v 0.366945 1.028049 -0.174649
v 0.365265 0.988542 -0.115559
v 0.362953 0.952908 -0.048774
v 0.353632 1.278598 0.078314
v 0.369507 1.293832 0.010611
v 0.384588 1.301206 -0.054245
v 0.398294 1.300436 -0.113762
v 0.410101 1.291553 -0.165651
v 0.419552 1.274898 -0.207920
v 0.426286 1.251110 -0.238943
v 0.430044 1.221104 -0.257529
v 0.430681 1.186033 -0.262963
v 0.428173 1.147245 -0.255037
v 0.422616 1.106230 -0.234054
v 0.414223 1.064564 -0.200822
v 0.403318 1.023849 -0.156617
v 0.390319 0.985650 -0.103139
v 0.375726 0.951434 -0.042442
v 0.363992 1.273209 0.094810
v 0.389830 1.283261 0.042970
v 0.414092 1.285859 -0.007268
v 0.435847 1.280903 -0.053970
v 0.454257 1.268585 -0.095344
v 0.468617 1.249377 -0.129799
v 0.478373 1.224017 -0.156010
v 0.483151 1.193480 -0.172971
v 0.482768 1.158940 -0.180030
v 0.477237 1.121724 -0.176915
v 0.466772 1.083261 -0.163747
v 0.451775 1.045031 -0.141031
v 0.432823 1.008502 -0.109640
v 0.410642 0.975079 -0.070780
v 0.386086 0.946045 -0.025946
v 0.370364 1.264725 0.118960
v 0.402328 1.266620 0.090340
v 0.432236 1.261701 0.061504
v 0.458940 1.250156 0.033560
v 0.481412 1.232429 0.007580
v 0.498789 1.209203 -0.015435
v 0.510404 1.181369 -0.034603
v 0.515810 1.149996 -0.049185
v 0.514799 1.116292 -0.058622
v 0.507410 1.081550 -0.062552
v 0.493927 1.047106 -0.060822
v 0.474868 1.014283 -0.053501
v 0.450967 0.984344 -0.040868
v 0.423140 0.958438 -0.023409
v 0.392458 0.937561 -0.001796
v 0.436257 1.232409 0.141600
v 0.487430 1.188591 0.127453
v 0.523048 1.097272 0.094984
v 0.514097 1.032839 0.070643
v 0.479987 0.977002 0.048443
vn 0.1636 0.9076 0.3866
vn 0.3216 0.8213 0.4712
vn 0.3515 0.8672 0.3527
vn 0.9452 -0.2613 -0.1959
vn 0.9839 -0.1786 -0.0020
vn 0.9343 -0.3435 -0.0951
vn 0.5245 0.7946 0.3059
vn 0.4992 0.7429 0.4460
vn 0.8505 -0.4930 -0.1834
vn 0.8656 -0.4267 -0.2621
vn 0.6598 0.6342 0.4031
vn 0.6767 0.6931 0.2481
vn 0.7519 -0.5771 -0.3188
vn 0.7367 -0.6227 -0.2637
vn 0.7957 0.4989 0.3434
vn 0.8034 0.5671 0.1817
vn 0.5977 -0.7289 -0.3339
vn 0.6078 -0.7060 -0.3634
vn 0.9006 0.4208 0.1089
vn 0.9000 0.3425 0.2695
vn -0.2283 0.8834 0.4093
vn -0.4277 0.8129 0.3952
vn -0.2406 0.8647 0.4408
vn 0.4277 -0.8129 -0.3952
vn 0.9677 0.1720 0.1845
vn 0.9652 0.2594 0.0321
vn -0.0549 0.8821 0.4679
vn -0.0322 0.9134 0.4058
vn 0.9951 0.0881 -0.0460
vn 0.9957 -0.0043 0.0926
vn 0.1345 0.8678 0.4783
vn 0.9885 -0.0875 -0.1230
vn 0.9572 -0.1756 0.2302
vn 0.0286 0.8224 0.5681
vn 0.9313 -0.3496 0.1027
vn 0.2013 0.7750 0.5990
vn 0.8691 -0.4944 -0.0182
vn 0.3823 0.6940 0.6101
vn 0.7821 -0.6098 -0.1282
vn 0.5628 0.5742 0.5947
vn 0.6784 -0.6989 -0.2265
vn 0.7273 0.4149 0.5467
vn 0.5624 -0.7651 -0.3136
vn 0.8565 0.2246 0.4648
vn -0.2814 0.8388 0.4661
vn 0.9346 0.0209 0.3552
vn -0.1324 0.8421 0.5228
vn 0.6430 -0.7590 -0.1026
vn 0.5749 -0.7906 -0.2106
vn 0.4989 0.2639 0.8255
vn 0.5051 -0.8075 -0.3048
vn 0.6762 -0.0024 0.7367
vn -0.3442 0.8069 0.4801
vn 0.7790 -0.2684 0.5667
vn -0.2564 0.7895 0.5576
vn 0.7987 -0.4774 0.3664
vn -0.1547 0.7572 0.6346
vn 0.7653 -0.6176 0.1811
vn -0.0326 0.7030 0.7104
vn 0.7083 -0.7054 0.0257
vn 0.1171 0.6145 0.7802
vn 0.2984 0.4735 0.8287
vn 0.3979 -0.8989 0.1835
vn -0.3575 0.5745 0.7363
vn 0.4217 -0.9066 0.0163
vn -0.3107 0.4480 0.8383
vn 0.4318 -0.8949 -0.1128
vn -0.2319 0.2533 0.9392
vn 0.4347 -0.8739 -0.2177
vn -0.1015 -0.0400 0.9940
vn 0.4331 -0.8471 -0.3080
vn 0.0778 -0.4025 0.9121
vn -0.4185 0.7717 0.4790
vn 0.2439 -0.6964 0.6749
vn -0.4056 0.7234 0.5588
vn 0.3466 -0.8463 0.4045
vn -0.3865 0.6607 0.6435
vn 0.2829 -0.9271 -0.2459
vn 0.3576 -0.8764 -0.3226
vn -0.5633 -0.5816 0.5868
vn -0.4917 0.7379 0.4623
vn -0.3922 -0.8158 0.4251
vn -0.5483 0.6531 0.5223
vn -0.2068 -0.9473 0.2448
vn -0.6022 0.5481 0.5804
vn -0.0435 -0.9956 0.0834
vn -0.6519 0.4136 0.6355
vn 0.0890 -0.9948 -0.0492
vn -0.6917 0.2366 0.6824
vn 0.1954 -0.9681 -0.1567
vn -0.7071 0.0037 0.7071
vn -0.6723 -0.2834 0.6839
vn -0.7526 0.4574 0.4737
vn -0.8302 0.2931 0.4743
vn -0.3345 -0.9411 -0.0503
vn -0.1623 -0.9763 -0.1429
vn -0.8835 0.1025 0.4571
vn 0.0009 -0.9749 -0.2226
vn -0.9019 -0.1103 0.4176
vn 0.1522 -0.9448 -0.2901
vn -0.8741 -0.3335 0.3531
vn 0.2916 -0.8916 -0.3464
vn -0.7942 -0.5467 0.2652
vn -0.5522 0.7122 0.4334
vn -0.6669 -0.7274 0.1616
vn -0.6585 0.5963 0.4592
vn -0.5075 -0.8600 0.0531
vn -0.8723 -0.4858 0.0552
vn -0.5922 0.7004 0.3983
vn 0.2461 -0.8931 -0.3764
vn -0.7686 -0.6393 -0.0254
vn -0.7262 0.5684 0.3867
vn -0.6343 -0.7660 -0.1045
vn -0.8353 0.4146 0.3610
vn -0.4763 -0.8609 -0.1785
vn -0.9150 0.2435 0.3217
vn -0.3022 -0.9213 -0.2446
vn -0.9611 0.0605 0.2695
vn -0.1194 -0.9462 -0.3006
vn -0.9702 -0.1275 0.2060
vn 0.0654 -0.9364 -0.3449
vn -0.9405 -0.3124 0.1335
vn -0.5245 -0.7946 -0.3059
vn -0.3515 -0.8672 -0.3527
vn -0.9885 0.0875 0.1230
vn -0.1636 -0.9076 -0.3866
vn -0.9951 -0.0881 0.0460
vn 0.0322 -0.9134 -0.4058
vn -0.9652 -0.2594 -0.0321
vn 0.2283 -0.8834 -0.4093
vn -0.9006 -0.4208 -0.1089
vn -0.6078 0.7060 0.3634
vn -0.8034 -0.5671 -0.1817
vn -0.7519 0.5771 0.3188
vn -0.6767 -0.6931 -0.2481
vn -0.8656 0.4267 0.2621
vn -0.9452 0.2613 0.1959
vn -0.5977 0.7289 0.3339
vn 0.2406 -0.8647 -0.4408
vn -0.7957 -0.4989 -0.3434
vn -0.7367 0.6227 0.2637
vn -0.6598 -0.6342 -0.4031
vn -0.8505 0.4930 0.1834
vn -0.4992 -0.7429 -0.4460
vn -0.9343 0.3435 0.0951
vn -0.3215 -0.8213 -0.4712
vn -0.9839 0.1786 0.0020
vn -0.1345 -0.8678 -0.4783
vn -0.9957 0.0043 -0.0926
vn 0.0549 -0.8821 -0.4679
vn -0.9677 -0.1720 -0.1845
vn -0.9000 -0.3425 -0.2695
vn -0.9313 0.3496 -0.1027
vn -0.0286 -0.8224 -0.5681
vn -0.9572 0.1756 -0.2302
vn 0.1324 -0.8421 -0.5228
vn -0.9346 -0.0209 -0.3552
vn 0.2814 -0.8388 -0.4661
vn -0.8565 -0.2246 -0.4648
vn -0.5624 0.7651 0.3136
vn -0.7273 -0.4149 -0.5467
vn -0.6784 0.6989 0.2265
vn -0.5628 -0.5742 -0.5947
vn -0.7821 0.6098 0.1282
vn -0.3823 -0.6940 -0.6101
vn -0.8691 0.4944 0.0182
vn -0.2013 -0.7750 -0.5990
vn -0.4989 -0.2639 -0.8255
vn -0.5749 0.7906 0.2106
vn -0.2984 -0.4735 -0.8287
vn -0.6430 0.7590 0.1026
vn -0.1171 -0.6145 -0.7802
vn -0.7083 0.7054 -0.0257
vn 0.0326 -0.7030 -0.7104
vn -0.7653 0.6176 -0.1811
vn 0.1547 -0.7572 -0.6346
vn -0.7987 0.4774 -0.3664
vn 0.2564 -0.7895 -0.5576
vn -0.7790 0.2684 -0.5667
vn 0.3442 -0.8069 -0.4801
vn -0.6762 0.0024 -0.7367
vn -0.5051 0.8075 0.3048
vn 0.3865 -0.6607 -0.6435
vn -0.3466 0.8463 -0.4045
vn 0.4056 -0.7234 -0.5588
vn -0.2438 0.6964 -0.6749
vn 0.4185 -0.7717 -0.4790
vn -0.0778 0.4025 -0.9121
vn -0.4331 0.8471 0.3080
vn 0.1015 0.0400 -0.9940
vn -0.4347 0.8739 0.2177
vn 0.2319 -0.2533 -0.9392
vn -0.4318 0.8949 0.1128
vn 0.3107 -0.4480 -0.8383
vn -0.4217 0.9066 -0.0163
vn 0.3575 -0.5745 -0.7363
vn -0.3979 0.8989 -0.1835
vn 0.7071 -0.0037 -0.7071
vn -0.1954 0.9681 0.1567
vn 0.6917 -0.2366 -0.6824
vn -0.0890 0.9948 0.0492
vn 0.6519 -0.4136 -0.6355
vn 0.0435 0.9956 -0.0834
vn 0.6022 -0.5481 -0.5804
vn 0.2068 0.9473 -0.2448
vn 0.5483 -0.6531 -0.5223
vn 0.3922 0.8158 -0.4250
vn 0.4917 -0.7379 -0.4623
vn 0.5633 0.5816 -0.5868
vn -0.3576 0.8764 0.3226
vn 0.6723 0.2834 -0.6839
vn -0.2829 0.9271 0.2459
vn 0.7526 -0.4574 -0.4737
vn 0.6585 -0.5963 -0.4592
vn 0.5075 0.8600 -0.0531
vn 0.6669 0.7274 -0.1615
vn 0.5522 -0.7122 -0.4334
vn 0.7942 0.5467 -0.2652
vn -0.2916 0.8916 0.3464
vn 0.8741 0.3335 -0.3531
vn -0.1522 0.9448 0.2901
vn 0.9019 0.1103 -0.4176
vn -0.0009 0.9749 0.2226
vn 0.8835 -0.1025 -0.4571
vn 0.1623 0.9763 0.1429
vn 0.8302 -0.2931 -0.4743
vn 0.3345 0.9411 0.0503
vn 0.1194 0.9462 0.3006
vn 0.9611 -0.0605 -0.2695
vn 0.3022 0.9213 0.2446
vn 0.9150 -0.2435 -0.3217
vn 0.4763 0.8609 0.1785
vn 0.8353 -0.4146 -0.3610
vn 0.6343 0.7660 0.1045
vn 0.7262 -0.5684 -0.3867
vn 0.7686 0.6393 0.0254
vn 0.5922 -0.7004 -0.3983
vn 0.8723 0.4858 -0.0552
vn -0.2461 0.8931 0.3764
vn 0.9405 0.3124 -0.1335
vn -0.0654 0.9364 0.3449
vn 0.9702 0.1275 -0.2060
vn 0.9721 -0.0125 0.2342
vn -0.0395 0.9756 0.2158
vn 0.9127 -0.0527 0.4051
vn -0.9846 -0.0748 0.1579
vn -0.9774 -0.0826 0.1944
vn 0.6965 0.1817 -0.6942
vn 0.6688 0.1863 -0.7198
vn -0.1424 -0.2193 0.9652
vn -0.1047 -0.2188 0.9701
vn -0.4662 0.1730 -0.8676
vn -0.4994 0.1678 -0.8500
vn 0.8966 -0.0607 0.4386
vn 0.0395 -0.9756 -0.2158
vn -0.7182 0.6377 0.2783
vn 0.4516 0.8229 -0.3448
vn 0.5203 0.2045 -0.8291
vn -0.1140 0.5392 0.8344
vn 0.0805 -0.2122 0.9739
vn -0.3687 0.8131 -0.4505
vn -0.6505 0.1388 -0.7467
vn 0.4980 0.6682 0.5528
vn 0.5172 0.7945 0.3181
vn 0.6322 0.6607 0.4047
vn 0.6732 0.6834 0.2824
vn 0.7615 -0.6166 -0.2000
vn 0.8389 -0.5442 -0.0131
vn 0.7246 -0.6828 -0.0930
vn 0.7653 0.5189 0.3809
vn 0.8027 0.5477 0.2361
vn 0.6210 -0.7424 -0.2514
vn 0.5847 -0.7937 -0.1681
vn 0.8703 0.3547 0.3417
vn 0.9016 0.3928 0.1814
vn 0.4554 -0.8405 -0.2937
vn 0.4253 -0.8738 -0.2360
vn 0.9416 0.1742 0.2882
vn 0.9670 0.2244 0.1203
vn 0.2707 -0.9061 -0.3250
vn 0.2523 -0.9216 -0.2948
vn 0.9748 -0.0146 0.2228
vn 0.9973 0.0481 0.0552
vn 0.1479 0.9245 0.3514
vn -0.0628 0.9361 0.3461
vn 0.1291 0.9144 0.3838
vn 0.0628 -0.9361 -0.3461
vn 0.9679 -0.2030 0.1484
vn 0.9914 -0.1301 -0.0116
vn 0.3079 0.8606 0.4056
vn 0.3399 0.8763 0.3415
vn 0.9216 -0.3821 0.0685
vn 0.9494 -0.3044 -0.0779
vn 0.4776 0.7755 0.4128
vn 0.8720 -0.4686 -0.1414
vn 0.8259 -0.5186 0.2210
vn 0.3663 0.7800 0.5073
vn 0.7287 -0.6765 0.1060
vn 0.5082 0.6723 0.5383
vn 0.6096 -0.7927 -0.0034
vn 0.6445 0.5292 0.5518
vn 0.4794 -0.8715 -0.1032
vn 0.7650 0.3486 0.5416
vn 0.3446 -0.9188 -0.1926
vn 0.8544 0.1352 0.5018
vn 0.2079 -0.9396 -0.2721
vn 0.8975 -0.0957 0.4305
vn 0.0839 0.9079 0.4107
vn 0.8866 -0.3209 0.3331
vn 0.2243 0.8570 0.4639
vn 0.2164 -0.9618 -0.1676
vn 0.5910 0.1012 0.8003
vn 0.1418 -0.9555 -0.2588
vn 0.6493 -0.2205 0.7279
vn 0.0170 0.9035 0.4283
vn 0.6353 -0.5179 0.5729
vn 0.0938 0.8581 0.5049
vn 0.5648 -0.7301 0.3846
vn 0.1768 0.7939 0.5817
vn 0.4729 -0.8561 0.2084
vn 0.2692 0.7022 0.6591
vn 0.3809 -0.9227 0.0597
vn 0.3736 0.5682 0.7332
vn 0.2954 -0.9533 -0.0634
vn 0.4869 0.3723 0.7901
vn 0.0212 -0.9708 0.2391
vn -0.0718 0.7943 0.6033
vn -0.0770 0.7092 0.7008
vn 0.0368 -0.9967 0.0719
vn -0.0826 0.5811 0.8096
vn 0.0476 -0.9972 -0.0582
vn -0.0863 0.3785 0.9215
vn 0.0554 -0.9848 -0.1645
vn -0.0826 0.0632 0.9946
vn 0.0611 -0.9646 -0.2565
vn -0.0634 -0.3438 0.9369
vn -0.0641 0.8993 0.4325
vn -0.0316 -0.6940 0.7192
vn -0.0676 0.8544 0.5152
vn -0.0012 -0.8891 0.4577
vn -0.0224 -0.9636 -0.2663
vn -0.7013 0.0403 0.7118
vn -0.7218 -0.2780 0.6339
vn -0.1476 0.8951 0.4207
vn -0.6636 -0.5672 0.4878
vn -0.2295 0.8421 0.4880
vn -0.5521 -0.7717 0.3157
vn -0.3170 0.7694 0.5545
vn -0.4263 -0.8911 0.1557
vn -0.4128 0.6677 0.6195
vn -0.3079 -0.9512 0.0208
vn -0.5165 0.5227 0.6782
vn -0.2024 -0.9751 -0.0906
vn -0.6205 0.3166 0.7174
vn -0.1083 -0.9769 -0.1845
vn -0.4966 0.7374 0.4579
vn -0.6303 0.6160 0.4725
vn -0.6758 -0.7367 0.0252
vn -0.5356 -0.8417 -0.0685
vn -0.7528 0.4604 0.4704
vn -0.3883 -0.9089 -0.1519
vn -0.8530 0.2698 0.4467
vn -0.2399 -0.9444 -0.2248
vn -0.9162 0.0509 0.3974
vn -0.0928 -0.9532 -0.2878
vn -0.9292 -0.1800 0.3228
vn -0.2172 0.8929 0.3943
vn -0.8874 -0.4001 0.2291
vn -0.3580 0.8283 0.4310
vn -0.7980 -0.5892 0.1266
vn -0.9801 0.0818 0.1807
vn -0.9876 -0.1085 0.1130
vn -0.2597 0.8961 0.3599
vn -0.1363 -0.9383 -0.3179
vn -0.9549 -0.2941 0.0404
vn -0.4339 0.8253 0.3613
vn -0.8840 -0.4663 -0.0335
vn -0.5941 0.7242 0.3501
vn -0.7790 -0.6181 -0.1052
vn -0.7346 0.5950 0.3261
vn -0.6456 -0.7442 -0.1715
vn -0.8495 0.4412 0.2893
vn -0.4899 -0.8409 -0.2301
vn -0.9330 0.2679 0.2403
vn -0.3182 -0.9060 -0.2793
vn -0.8027 -0.5477 -0.2361
vn -0.6732 -0.6834 -0.2824
vn -0.8720 0.4686 0.1414
vn -0.5172 -0.7945 -0.3181
vn -0.9494 0.3044 0.0779
vn -0.3399 -0.8763 -0.3415
vn -0.9914 0.1301 0.0116
vn -0.1479 -0.9245 -0.3514
vn -0.9973 -0.0481 -0.0552
vn -0.2707 0.9061 0.3250
vn -0.9670 -0.2244 -0.1203
vn -0.4554 0.8405 0.2937
vn -0.9016 -0.3928 -0.1814
vn -0.6210 0.7424 0.2514
vn -0.7615 0.6166 0.2000
vn -0.2523 0.9216 0.2948
vn -0.1291 -0.9144 -0.3838
vn -0.9748 0.0147 -0.2228
vn -0.9416 -0.1742 -0.2882
vn -0.4253 0.8738 0.2360
vn -0.8703 -0.3547 -0.3417
vn -0.5847 0.7937 0.1681
vn -0.7653 -0.5189 -0.3809
vn -0.7246 0.6828 0.0930
vn -0.6322 -0.6607 -0.4047
vn -0.8389 0.5442 0.0131
vn -0.4776 -0.7755 -0.4128
vn -0.9216 0.3821 -0.0685
vn -0.3079 -0.8606 -0.4056
vn -0.9679 0.2030 -0.1484
vn -0.6096 0.7927 0.0034
vn -0.7287 0.6765 -0.1060
vn -0.5082 -0.6723 -0.5383
vn -0.3663 -0.7800 -0.5073
vn -0.8259 0.5186 -0.2210
vn -0.2243 -0.8570 -0.4639
vn -0.8866 0.3209 -0.3331
vn -0.0839 -0.9079 -0.4107
vn -0.8975 0.0957 -0.4305
vn -0.2079 0.9396 0.2721
vn -0.8544 -0.1352 -0.5018
vn -0.3446 0.9188 0.1926
vn -0.7650 -0.3486 -0.5416
vn -0.4794 0.8715 0.1032
vn -0.6445 -0.5292 -0.5518
vn -0.6493 0.2205 -0.7279
vn -0.5910 -0.1012 -0.8003
vn -0.1418 0.9555 0.2588
vn -0.2164 0.9618 0.1676
vn -0.4869 -0.3723 -0.7901
vn -0.2954 0.9533 0.0634
vn -0.3736 -0.5682 -0.7332
vn -0.3809 0.9227 -0.0597
vn -0.2692 -0.7022 -0.6591
vn -0.4729 0.8561 -0.2084
vn -0.1768 -0.7939 -0.5817
vn -0.5648 0.7301 -0.3846
vn -0.0938 -0.8581 -0.5049
vn -0.6353 0.5179 -0.5729
vn -0.0170 -0.9035 -0.4283
vn 0.0718 -0.7943 -0.6033
vn -0.0212 0.9708 -0.2391
vn 0.0012 0.8891 -0.4577
vn 0.0676 -0.8544 -0.5152
vn 0.0316 0.6940 -0.7193
vn 0.0641 -0.8993 -0.4325
vn 0.0634 0.3438 -0.9369
vn -0.0611 0.9646 0.2565
vn 0.0826 -0.0632 -0.9946
vn -0.0554 0.9848 0.1645
vn 0.0863 -0.3785 -0.9215
vn -0.0476 0.9972 0.0582
vn 0.0826 -0.5811 -0.8096
vn -0.0368 0.9967 -0.0719
vn 0.0770 -0.7092 -0.7008
vn 0.6205 -0.3166 -0.7174
vn 0.1083 0.9769 0.1845
vn 0.2024 0.9751 0.0906
vn 0.5165 -0.5227 -0.6782
vn 0.3079 0.9512 -0.0208
vn 0.4128 -0.6677 -0.6195
vn 0.4263 0.8911 -0.1557
vn 0.3170 -0.7694 -0.5545
vn 0.5521 0.7717 -0.3157
vn 0.2295 -0.8421 -0.4880
vn 0.6636 0.5672 -0.4878
vn 0.1476 -0.8951 -0.4207
vn 0.7218 0.2780 -0.6339
vn 0.0224 0.9636 0.2663
vn 0.7013 -0.0403 -0.7118
vn 0.3580 -0.8283 -0.4310
vn 0.8874 0.4001 -0.2291
vn 0.2172 -0.8929 -0.3943
vn 0.9292 0.1800 -0.3228
vn 0.0928 0.9532 0.2878
vn 0.9162 -0.0509 -0.3974
vn 0.2399 0.9444 0.2248
vn 0.8530 -0.2698 -0.4467
vn 0.3883 0.9089 0.1519
vn 0.7528 -0.4604 -0.4704
vn 0.5356 0.8417 0.0685
vn 0.6303 -0.6160 -0.4725
vn 0.6758 0.7367 -0.0252
vn 0.4966 -0.7374 -0.4579
vn 0.7980 0.5892 -0.1266
vn 0.4899 0.8409 0.2301
vn 0.8495 -0.4412 -0.2893
vn 0.6456 0.7442 0.1715
vn 0.7346 -0.5950 -0.3261
vn 0.7790 0.6181 0.1052
vn 0.5941 -0.7242 -0.3501
vn 0.8840 0.4663 0.0335
vn 0.4339 -0.8253 -0.3613
vn 0.9549 0.2941 -0.0404
vn 0.2597 -0.8961 -0.3599
vn 0.9876 0.1085 -0.1130
vn 0.1363 0.9383 0.3179
vn 0.9801 -0.0818 -0.1808
vn 0.3182 0.9060 0.2793
vn 0.9330 -0.2679 -0.2403
vn 0.6082 0.6532 0.4511
vn -0.1359 0.9761 0.1695
vn -0.1121 0.9504 0.2900
vn 0.0123 0.9519 0.3063
vn 0.0655 0.9785 0.1958
vn -0.0261 0.9935 0.1113
vn -0.9991 -0.0354 -0.0226
vn -0.6382 0.6549 0.4047
vn 0.8167 0.1559 -0.5555
vn 0.4530 0.8227 -0.3435
vn -0.3224 -0.2169 0.9214
vn -0.1160 0.5391 0.8342
vn -0.2951 0.1949 -0.9354
vn -0.3669 0.8134 -0.4515
vt 0.750000 0.812500
vt 0.687500 0.750000
vt 0.750000 0.750000
vt 0.750000 0.250000
vt 0.687500 0.312500
vt 0.687500 0.250000
vt 0.750000 0.687500
vt 0.687500 0.687500
vt 0.687500 0.187500
vt 0.750000 0.187500
vt 0.687500 0.625000
vt 0.750000 0.625000
vt 0.750000 0.125000
vt 0.687500 0.125000
vt 0.687500 0.562500
vt 0.750000 0.562500
vt 0.687500 0.062500
vt 0.750000 0.062500
vt 0.750000 0.500000
vt 0.687500 0.500000
vt 0.750000 0.937500
vt 0.718750 1.000000
vt 0.687500 0.937500
vt 0.718750 0.000000
vt 0.687500 0.437500
vt 0.750000 0.437500
vt 0.687500 0.875000
vt 0.750000 0.875000
vt 0.750000 0.375000
vt 0.687500 0.375000
vt 0.687500 0.812500
vt 0.750000 0.312500
vt 0.625000 0.375000
vt 0.625000 0.812500
vt 0.625000 0.312500
vt 0.625000 0.750000
vt 0.625000 0.250000
vt 0.625000 0.687500
vt 0.625000 0.187500
vt 0.625000 0.625000
vt 0.625000 0.125000
vt 0.625000 0.562500
vt 0.625000 0.062500
vt 0.625000 0.500000
vt 0.656250 1.000000
vt 0.625000 0.937500
vt 0.656250 0.000000
vt 0.625000 0.437500
vt 0.625000 0.875000
vt 0.562500 0.187500
vt 0.562500 0.125000
vt 0.562500 0.562500
vt 0.562500 0.062500
vt 0.562500 0.500000
vt 0.593750 1.000000
vt 0.562500 0.937500
vt 0.593750 0.000000
vt 0.562500 0.437500
vt 0.562500 0.875000
vt 0.562500 0.375000
vt 0.562500 0.812500
vt 0.562500 0.312500
vt 0.562500 0.750000
vt 0.562500 0.250000
vt 0.562500 0.687500
vt 0.562500 0.625000
vt 0.500000 0.312500
vt 0.500000 0.750000
vt 0.500000 0.250000
vt 0.500000 0.687500
vt 0.500000 0.187500
vt 0.500000 0.625000
vt 0.500000 0.125000
vt 0.500000 0.562500
vt 0.500000 0.062500
vt 0.500000 0.500000
vt 0.531250 1.000000
vt 0.500000 0.937500
vt 0.531250 0.000000
vt 0.500000 0.437500
vt 0.500000 0.875000
vt 0.500000 0.375000
vt 0.500000 0.812500
vt 0.437500 0.125000
vt 0.437500 0.062500
vt 0.437500 0.500000
vt 0.468750 1.000000
vt 0.437500 0.937500
vt 0.468750 0.000000
vt 0.437500 0.437500
vt 0.437500 0.875000
vt 0.437500 0.375000
vt 0.437500 0.812500
vt 0.437500 0.312500
vt 0.437500 0.750000
vt 0.437500 0.250000
vt 0.437500 0.687500
vt 0.437500 0.187500
vt 0.437500 0.625000
vt 0.437500 0.562500
vt 0.375000 0.812500
vt 0.375000 0.750000
vt 0.375000 0.312500
vt 0.375000 0.250000
vt 0.375000 0.687500
vt 0.375000 0.187500
vt 0.375000 0.625000
vt 0.375000 0.125000
vt 0.375000 0.562500
vt 0.375000 0.062500
vt 0.375000 0.500000
vt 0.406250 1.000000
vt 0.375000 0.937500
vt 0.406250 0.000000
vt 0.375000 0.437500
vt 0.375000 0.875000
vt 0.375000 0.375000
vt 0.312500 0.500000
vt 0.343750 1.000000
vt 0.312500 0.937500
vt 0.343750 0.000000
vt 0.312500 0.062500
vt 0.312500 0.437500
vt 0.312500 0.875000
vt 0.312500 0.375000
vt 0.312500 0.812500
vt 0.312500 0.312500
vt 0.312500 0.750000
vt 0.312500 0.250000
vt 0.312500 0.687500
vt 0.312500 0.187500
vt 0.312500 0.625000
vt 0.312500 0.125000
vt 0.312500 0.562500
vt 0.250000 0.312500
vt 0.250000 0.250000
vt 0.250000 0.687500
vt 0.250000 0.187500
vt 0.250000 0.625000
vt 0.250000 0.125000
vt 0.250000 0.562500
vt 0.250000 0.062500
vt 0.250000 0.500000
vt 0.281250 1.000000
vt 0.250000 0.937500
vt 0.281250 0.000000
vt 0.250000 0.437500
vt 0.250000 0.875000
vt 0.250000 0.375000
vt 0.250000 0.812500
vt 0.250000 0.750000
vt 0.218750 1.000000
vt 0.187500 0.937500
vt 0.218750 0.000000
vt 0.187500 0.062500
vt 0.187500 0.437500
vt 0.187500 0.875000
vt 0.187500 0.375000
vt 0.187500 0.812500
vt 0.187500 0.312500
vt 0.187500 0.750000
vt 0.187500 0.250000
vt 0.187500 0.687500
vt 0.187500 0.187500
vt 0.187500 0.625000
vt 0.187500 0.125000
vt 0.187500 0.562500
vt 0.187500 0.500000
vt 0.125000 0.687500
vt 0.125000 0.187500
vt 0.125000 0.625000
vt 0.125000 0.125000
vt 0.125000 0.562500
vt 0.125000 0.062500
vt 0.125000 0.500000
vt 0.156250 1.000000
vt 0.125000 0.937500
vt 0.156250 0.000000
vt 0.125000 0.437500
vt 0.125000 0.875000
vt 0.125000 0.375000
vt 0.125000 0.812500
vt 0.125000 0.312500
vt 0.125000 0.750000
vt 0.125000 0.250000
vt 0.062500 0.437500
vt 0.062500 0.875000
vt 0.062500 0.375000
vt 0.062500 0.812500
vt 0.062500 0.312500
vt 0.062500 0.750000
vt 0.062500 0.250000
vt 0.062500 0.687500
vt 0.062500 0.187500
vt 0.062500 0.625000
vt 0.062500 0.125000
vt 0.062500 0.562500
vt 0.062500 0.062500
vt 0.062500 0.500000
vt 0.093750 1.000000
vt 0.062500 0.937500
vt 0.093750 0.000000
vt 0.000000 0.187500
vt 0.000000 0.625000
vt 0.000000 0.125000
vt 0.000000 0.562500
vt 0.000000 0.062500
vt 0.000000 0.500000
vt 0.031250 1.000000
vt 0.000000 0.937500
vt 0.031250 0.000000
vt 0.000000 0.437500
vt 0.000000 0.875000
vt 0.000000 0.375000
vt 0.000000 0.812500
vt 0.000000 0.312500
vt 0.000000 0.750000
vt 0.000000 0.250000
vt 0.000000 0.687500
vt 1.000000 0.437500
vt 0.937500 0.375000
vt 1.000000 0.375000
vt 1.000000 0.875000
vt 0.937500 0.812500
vt 1.000000 0.812500
vt 0.937500 0.312500
vt 1.000000 0.312500
vt 1.000000 0.750000
vt 0.937500 0.750000
vt 1.000000 0.250000
vt 0.937500 0.250000
vt 0.937500 0.687500
vt 1.000000 0.687500
vt 0.937500 0.187500
vt 1.000000 0.187500
vt 0.937500 0.625000
vt 1.000000 0.625000
vt 1.000000 0.125000
vt 0.937500 0.125000
vt 1.000000 0.562500
vt 0.937500 0.562500
vt 0.937500 0.062500
vt 1.000000 0.062500
vt 1.000000 0.500000
vt 0.937500 0.500000
vt 1.000000 0.937500
vt 0.968750 1.000000
vt 0.937500 0.937500
vt 0.968750 0.000000
vt 0.937500 0.437500
vt 0.937500 0.875000
vt 0.875000 0.187500
vt 0.875000 0.125000
vt 0.875000 0.625000
vt 0.875000 0.562500
vt 0.875000 0.062500
vt 0.875000 0.500000
vt 0.906250 1.000000
vt 0.875000 0.937500
vt 0.906250 0.000000
vt 0.875000 0.437500
vt 0.875000 0.875000
vt 0.875000 0.375000
vt 0.875000 0.812500
vt 0.875000 0.312500
vt 0.875000 0.750000
vt 0.875000 0.250000
vt 0.875000 0.687500
vt 0.812500 0.812500
vt 0.812500 0.312500
vt 0.812500 0.750000
vt 0.812500 0.250000
vt 0.812500 0.687500
vt 0.812500 0.187500
vt 0.812500 0.625000
vt 0.812500 0.125000
vt 0.812500 0.562500
vt 0.812500 0.062500
vt 0.812500 0.500000
vt 0.843750 1.000000
vt 0.812500 0.937500
vt 0.843750 0.000000
vt 0.812500 0.437500
vt 0.812500 0.875000
vt 0.812500 0.375000
vt 0.781250 1.000000
vt 0.781250 0.000000
vt 0.108932 0.444164
vt 0.250000 0.490000
vt 0.021746 0.324164
vt 0.391068 0.055836
vt 0.478254 0.324164
vt 0.108932 0.055836
vt 0.021746 0.175836
vt 0.478254 0.175836
vt 0.391068 0.444164
vt 0.250000 0.010000
s 1
f 238/1/1 14/2/2 3/3/3
f 242/4/4 21/5/5 22/6/6
f 239/7/7 14/2/2 15/8/8
f 242/4/4 23/9/9 8/10/10
f 239/7/7 16/11/11 4/12/12
f 9/13/13 23/9/9 24/14/14
f 4/12/12 17/15/15 5/16/16
f 9/13/13 25/17/17 10/18/18
f 240/19/19 17/15/15 18/20/20
f 1/21/21 177/22/22 11/23/23
f 146/24/24 10/18/18 25/17/17
f 240/19/19 19/25/25 6/26/26
f 1/21/21 12/27/27 2/28/28
f 241/29/29 19/25/25 20/30/30
f 238/1/1 12/27/27 13/31/31
f 241/29/29 21/5/5 7/32/32
f 19/25/25 35/33/33 20/30/30
f 12/27/27 28/34/34 13/31/31
f 20/30/30 36/35/35 21/5/5
f 13/31/31 29/36/36 14/2/2
f 21/5/5 37/37/37 22/6/6
f 14/2/2 30/38/38 15/8/8
f 23/9/9 37/37/37 38/39/39
f 15/8/8 31/40/40 16/11/11
f 24/14/14 38/39/39 39/41/41
f 16/11/11 32/42/42 17/15/15
f 24/14/14 40/43/43 25/17/17
f 17/15/15 33/44/44 18/20/20
f 11/23/23 177/45/22 26/46/45
f 146/47/24 25/17/17 40/43/43
f 18/20/20 34/48/46 19/25/25
f 11/23/23 27/49/47 12/27/27
f 39/41/41 53/50/48 54/51/49
f 31/40/40 47/52/50 32/42/42
f 40/43/43 54/51/49 55/53/51
f 32/42/42 48/54/52 33/44/44
f 26/46/45 177/55/22 41/56/53
f 146/57/24 40/43/43 55/53/51
f 33/44/44 49/58/54 34/48/46
f 26/46/45 42/59/55 27/49/47
f 34/48/46 50/60/56 35/33/33
f 27/49/47 43/61/57 28/34/34
f 35/33/33 51/62/58 36/35/35
f 28/34/34 44/63/59 29/36/36
f 37/37/37 51/62/58 52/64/60
f 29/36/36 45/65/61 30/38/38
f 37/37/37 53/50/48 38/39/39
f 30/38/38 46/66/62 31/40/40
f 50/60/56 66/67/63 51/62/58
f 43/61/57 59/68/64 44/63/59
f 51/62/58 67/69/65 52/64/60
f 44/63/59 60/70/66 45/65/61
f 53/50/48 67/69/65 68/71/67
f 45/65/61 61/72/68 46/66/62
f 53/50/48 69/73/69 54/51/49
f 47/52/50 61/72/68 62/74/70
f 55/53/51 69/73/69 70/75/71
f 47/52/50 63/76/72 48/54/52
f 41/56/53 177/77/22 56/78/73
f 146/79/24 55/53/51 70/75/71
f 48/54/52 64/80/74 49/58/54
f 41/56/53 57/81/75 42/59/55
f 49/58/54 65/82/76 50/60/56
f 43/61/57 57/81/75 58/83/77
f 70/75/71 84/84/78 85/85/79
f 62/74/70 78/86/80 63/76/72
f 56/78/73 177/87/22 71/88/81
f 146/89/24 70/75/71 85/85/79
f 64/80/74 78/86/80 79/90/82
f 56/78/73 72/91/83 57/81/75
f 64/80/74 80/92/84 65/82/76
f 58/83/77 72/91/83 73/93/85
f 65/82/76 81/94/86 66/67/63
f 58/83/77 74/95/87 59/68/64
f 66/67/63 82/96/88 67/69/65
f 59/68/64 75/97/89 60/70/66
f 67/69/65 83/98/90 68/71/67
f 61/72/68 75/97/89 76/99/91
f 69/73/69 83/98/90 84/84/78
f 61/72/68 77/100/92 62/74/70
f 74/95/87 88/101/93 89/102/94
f 82/96/88 96/103/95 97/104/96
f 74/95/87 90/105/97 75/97/89
f 82/96/88 98/106/98 83/98/90
f 75/97/89 91/107/99 76/99/91
f 84/84/78 98/106/98 99/108/100
f 76/99/91 92/109/101 77/100/92
f 84/84/78 100/110/102 85/85/79
f 77/100/92 93/111/103 78/86/80
f 71/88/81 177/112/22 86/113/104
f 146/114/24 85/85/79 100/110/102
f 79/90/82 93/111/103 94/115/105
f 72/91/83 86/113/104 87/116/106
f 79/90/82 95/117/107 80/92/84
f 72/91/83 88/101/93 73/93/85
f 80/92/84 96/103/95 81/94/86
f 92/109/101 108/118/108 93/111/103
f 86/113/104 177/119/22 101/120/109
f 146/121/24 100/110/102 115/122/110
f 93/111/103 109/123/111 94/115/105
f 87/116/106 101/120/109 102/124/112
f 94/115/105 110/125/113 95/117/107
f 87/116/106 103/126/114 88/101/93
f 95/117/107 111/127/115 96/103/95
f 89/102/94 103/126/114 104/128/116
f 97/104/96 111/127/115 112/129/117
f 89/102/94 105/130/118 90/105/97
f 97/104/96 113/131/119 98/106/98
f 90/105/97 106/132/120 91/107/99
f 98/106/98 114/133/121 99/108/100
f 91/107/99 107/134/122 92/109/101
f 99/108/100 115/122/110 100/110/102
f 112/129/117 126/135/123 127/136/124
f 104/128/116 120/137/125 105/130/118
f 112/129/117 128/138/126 113/131/119
f 105/130/118 121/139/127 106/132/120
f 113/131/119 129/140/128 114/133/121
f 107/134/122 121/139/127 122/141/129
f 114/133/121 130/142/130 115/122/110
f 108/118/108 122/141/129 123/143/131
f 101/120/109 177/144/22 116/145/132
f 146/146/24 115/122/110 130/142/130
f 108/118/108 124/147/133 109/123/111
f 101/120/109 117/148/134 102/124/112
f 109/123/111 125/149/135 110/125/113
f 102/124/112 118/150/136 103/126/114
f 110/125/113 126/135/123 111/127/115
f 104/128/116 118/150/136 119/151/137
f 116/145/132 177/152/22 131/153/138
f 146/154/24 130/142/130 145/155/139
f 123/143/131 139/156/140 124/147/133
f 116/145/132 132/157/141 117/148/134
f 124/147/133 140/158/142 125/149/135
f 117/148/134 133/159/143 118/150/136
f 125/149/135 141/160/144 126/135/123
f 119/151/137 133/159/143 134/161/145
f 127/136/124 141/160/144 142/162/146
f 119/151/137 135/163/147 120/137/125
f 127/136/124 143/164/148 128/138/126
f 121/139/127 135/163/147 136/165/149
f 129/140/128 143/164/148 144/166/150
f 121/139/127 137/167/151 122/141/129
f 129/140/128 145/155/139 130/142/130
f 123/143/131 137/167/151 138/168/152
f 134/161/145 151/169/153 135/163/147
f 142/162/146 159/170/154 143/164/148
f 136/165/149 151/169/153 152/171/155
f 143/164/148 160/172/156 144/166/150
f 136/165/149 153/173/157 137/167/151
f 144/166/150 161/174/158 145/155/139
f 138/168/152 153/173/157 154/175/159
f 131/153/138 177/176/22 147/177/160
f 146/178/24 145/155/139 161/174/158
f 138/168/152 155/179/161 139/156/140
f 132/157/141 147/177/160 148/180/162
f 139/156/140 156/181/163 140/158/142
f 132/157/141 149/182/164 133/159/143
f 140/158/142 157/183/165 141/160/144
f 134/161/145 149/182/164 150/184/166
f 141/160/144 158/185/167 142/162/146
f 154/175/159 170/186/168 155/179/161
f 147/177/160 163/187/169 148/180/162
f 155/179/161 171/188/170 156/181/163
f 148/180/162 164/189/171 149/182/164
f 156/181/163 172/190/172 157/183/165
f 150/184/166 164/189/171 165/191/173
f 158/185/167 172/190/172 173/192/174
f 150/184/166 166/193/175 151/169/153
f 158/185/167 174/194/176 159/170/154
f 151/169/153 167/195/177 152/171/155
f 160/172/156 174/194/176 175/196/178
f 152/171/155 168/197/179 153/173/157
f 160/172/156 176/198/180 161/174/158
f 154/175/159 168/197/179 169/199/181
f 147/177/160 177/200/22 162/201/182
f 146/202/24 161/174/158 176/198/180
f 173/192/174 190/203/183 174/194/176
f 166/193/175 183/204/184 167/195/177
f 175/196/178 190/203/183 191/205/185
f 167/195/177 184/206/186 168/197/179
f 175/196/178 192/207/187 176/198/180
f 169/199/181 184/206/186 185/208/188
f 162/201/182 177/209/22 178/210/189
f 146/211/24 176/198/180 192/207/187
f 169/199/181 186/212/190 170/186/168
f 162/201/182 179/213/191 163/187/169
f 170/186/168 187/214/192 171/188/170
f 163/187/169 180/215/193 164/189/171
f 171/188/170 188/216/194 172/190/172
f 165/191/173 180/215/193 181/217/195
f 173/192/174 188/216/194 189/218/196
f 165/191/173 182/219/197 166/193/175
f 186/220/190 202/221/198 187/222/192
f 179/223/191 195/224/199 180/225/193
f 187/222/192 203/226/200 188/227/194
f 181/228/195 195/224/199 196/229/201
f 189/230/196 203/226/200 204/231/202
f 181/228/195 197/232/203 182/233/197
f 189/230/196 205/234/204 190/235/183
f 182/233/197 198/236/205 183/237/184
f 191/238/185 205/234/204 206/239/206
f 184/240/186 198/236/205 199/241/207
f 191/238/185 207/242/208 192/243/187
f 185/244/188 199/241/207 200/245/209
f 178/246/189 177/247/22 193/248/210
f 146/249/24 192/243/187 207/242/208
f 185/244/188 201/250/211 186/220/190
f 178/246/189 194/251/212 179/223/191
f 206/239/206 220/252/213 221/253/214
f 199/241/207 213/254/215 214/255/216
f 206/239/206 222/256/217 207/242/208
f 200/245/209 214/255/216 215/257/218
f 193/248/210 177/258/22 208/259/219
f 146/260/24 207/242/208 222/256/217
f 200/245/209 216/261/220 201/250/211
f 194/251/212 208/259/219 209/262/221
f 201/250/211 217/263/222 202/221/198
f 194/251/212 210/264/223 195/224/199
f 202/221/198 218/265/224 203/226/200
f 196/229/201 210/264/223 211/266/225
f 203/226/200 219/267/226 204/231/202
f 196/229/201 212/268/227 197/232/203
f 204/231/202 220/252/213 205/234/204
f 197/232/203 213/254/215 198/236/205
f 209/262/221 225/269/228 210/264/223
f 217/263/222 233/270/229 218/265/224
f 211/266/225 225/269/228 226/271/230
f 219/267/226 233/270/229 234/272/231
f 211/266/225 227/273/232 212/268/227
f 219/267/226 235/274/233 220/252/213
f 212/268/227 228/275/234 213/254/215
f 221/253/214 235/274/233 236/276/235
f 213/254/215 229/277/236 214/255/216
f 221/253/214 237/278/237 222/256/217
f 215/257/218 229/277/236 230/279/238
f 208/259/219 177/280/22 223/281/239
f 146/282/24 222/256/217 237/278/237
f 215/257/218 231/283/240 216/261/220
f 208/259/219 224/284/241 209/262/221
f 216/261/220 232/285/242 217/263/222
f 229/277/236 4/12/12 5/16/16
f 236/276/235 10/18/18 237/278/237
f 230/279/238 5/16/16 240/19/19
f 223/281/239 177/286/22 1/21/21
f 146/287/24 237/278/237 10/18/18
f 230/279/238 6/26/26 231/283/240
f 224/284/241 1/21/21 2/28/28
f 232/285/242 6/26/26 241/29/29
f 225/269/228 2/28/28 238/1/1
f 232/285/242 7/32/32 233/270/229
f 225/269/228 3/3/3 226/271/230
f 234/272/231 7/32/32 242/4/4
f 227/273/232 3/3/3 239/7/7
f 234/272/231 8/10/10 235/274/233
f 227/273/232 4/12/12 228/275/234
f 236/276/235 8/10/10 9/13/13
s 0
f 252/288/243 264/289/243 272/288/243
f 261/290/244 257/291/244 255/292/244
f 243/289/245 262/288/245 254/289/245
f 249/293/246 260/294/246 250/294/246
f 246/295/247 257/291/247 247/291/247
f 244/296/248 254/289/248 253/296/248
f 251/290/249 260/294/249 261/290/249
f 248/297/250 257/291/250 258/297/250
f 244/296/251 255/292/251 245/292/251
f 252/288/252 261/290/252 262/288/252
f 248/297/253 259/293/253 249/293/253
f 246/295/254 255/292/254 256/295/254
s 1
f 267/291/255 271/290/255 264/289/255
s 0
f 250/294/256 269/293/256 249/293/256
f 247/291/247 266/295/247 246/295/247
f 244/296/257 264/289/257 243/289/257
f 250/294/258 271/290/258 270/294/258
f 248/297/259 267/291/259 247/291/259
f 244/296/260 265/292/260 263/296/260
f 252/288/261 271/290/261 251/290/261
f 248/297/262 269/293/262 268/297/262
f 245/292/263 266/295/263 265/292/263
s 1
f 510/1/264 286/2/265 275/3/266
f 514/4/267 293/5/268 294/6/269
f 275/3/266 287/8/270 511/7/271
f 280/10/272 294/6/269 295/9/273
f 511/7/271 288/11/274 276/12/275
f 281/13/276 295/9/273 296/14/277
f 276/12/275 289/15/278 277/16/279
f 282/18/280 296/14/277 297/17/281
f 277/16/279 290/20/282 512/19/283
f 273/21/284 449/22/285 283/23/286
f 418/24/287 282/18/280 297/17/281
f 512/19/283 291/25/288 278/26/289
f 273/21/284 284/27/290 274/28/291
f 278/26/289 292/30/292 513/29/293
f 274/28/291 285/31/294 510/1/264
f 513/29/293 293/5/268 279/32/295
f 291/25/288 307/33/296 292/30/292
f 284/27/290 300/34/297 285/31/294
f 292/30/292 308/35/298 293/5/268
f 285/31/294 301/36/299 286/2/265
f 293/5/268 309/37/300 294/6/269
f 286/2/265 302/38/301 287/8/270
f 294/6/269 310/39/302 295/9/273
f 287/8/270 303/40/303 288/11/274
f 295/9/273 311/41/304 296/14/277
f 288/11/274 304/42/305 289/15/278
f 297/17/281 311/41/304 312/43/306
f 289/15/278 305/44/307 290/20/282
f 283/23/286 449/45/285 298/46/308
f 418/47/287 297/17/281 312/43/306
f 290/20/282 306/48/309 291/25/288
f 283/23/286 299/49/310 284/27/290
f 310/39/302 326/51/311 311/41/304
f 303/40/303 319/52/312 304/42/305
f 311/41/304 327/53/313 312/43/306
f 304/42/305 320/54/314 305/44/307
f 298/46/308 449/55/285 313/56/315
f 418/57/287 312/43/306 327/53/313
f 305/44/307 321/58/316 306/48/309
f 299/49/310 313/56/315 314/59/317
f 306/48/309 322/60/318 307/33/296
f 300/34/297 314/59/317 315/61/319
f 307/33/296 323/62/320 308/35/298
f 301/36/299 315/61/319 316/63/321
f 308/35/298 324/64/322 309/37/300
f 302/38/301 316/63/321 317/65/323
f 309/37/300 325/50/324 310/39/302
f 303/40/303 317/65/323 318/66/325
f 322/60/318 338/67/326 323/62/320
f 316/63/321 330/83/327 331/68/328
f 323/62/320 339/69/329 324/64/322
f 317/65/323 331/68/328 332/70/330
f 324/64/322 340/71/331 325/50/324
f 318/66/325 332/70/330 333/72/332
f 325/50/324 341/73/333 326/51/311
f 319/52/312 333/72/332 334/74/334
f 326/51/311 342/75/335 327/53/313
f 320/54/314 334/74/334 335/76/336
f 313/56/315 449/77/285 328/78/337
f 418/79/287 327/53/313 342/75/335
f 320/54/314 336/80/338 321/58/316
f 314/59/317 328/78/337 329/81/339
f 321/58/316 337/82/340 322/60/318
f 315/61/319 329/81/339 330/83/327
f 341/73/333 357/85/341 342/75/335
f 335/76/336 349/100/342 350/86/343
f 328/78/337 449/87/285 343/88/344
f 418/89/287 342/75/335 357/85/341
f 336/80/338 350/86/343 351/90/345
f 329/81/339 343/88/344 344/91/346
f 336/80/338 352/92/347 337/82/340
f 330/83/327 344/91/346 345/93/348
f 337/82/340 353/94/349 338/67/326
f 331/68/328 345/93/348 346/95/350
f 338/67/326 354/96/351 339/69/329
f 332/70/330 346/95/350 347/97/352
f 339/69/329 355/98/353 340/71/331
f 333/72/332 347/97/352 348/99/354
f 340/71/331 356/84/355 341/73/333
f 334/74/334 348/99/354 349/100/342
f 346/95/350 360/101/356 361/102/357
f 354/96/351 368/103/358 369/104/359
f 347/97/352 361/102/357 362/105/360
f 355/98/353 369/104/359 370/106/361
f 348/99/354 362/105/360 363/107/362
f 356/84/355 370/106/361 371/108/363
f 349/100/342 363/107/362 364/109/364
f 356/84/355 372/110/365 357/85/341
f 350/86/343 364/109/364 365/111/366
f 343/88/344 449/112/285 358/113/367
f 418/114/287 357/85/341 372/110/365
f 351/90/345 365/111/366 366/115/368
f 344/91/346 358/113/367 359/116/369
f 352/92/347 366/115/368 367/117/370
f 345/93/348 359/116/369 360/101/356
f 353/94/349 367/117/370 368/103/358
f 365/111/366 379/134/371 380/118/372
f 358/113/367 449/119/285 373/120/373
f 418/121/287 372/110/365 387/122/374
f 366/115/368 380/118/372 381/123/375
f 358/113/367 374/124/376 359/116/369
f 367/117/370 381/123/375 382/125/377
f 359/116/369 375/126/378 360/101/356
f 368/103/358 382/125/377 383/127/379
f 360/101/356 376/128/380 361/102/357
f 369/104/359 383/127/379 384/129/381
f 362/105/360 376/128/380 377/130/382
f 370/106/361 384/129/381 385/131/383
f 363/107/362 377/130/382 378/132/384
f 371/108/363 385/131/383 386/133/385
f 364/109/364 378/132/384 379/134/371
f 372/110/365 386/133/385 387/122/374
f 384/129/381 398/135/386 399/136/387
f 376/128/380 392/137/388 377/130/382
f 385/131/383 399/136/387 400/138/389
f 378/132/384 392/137/388 393/139/390
f 386/133/385 400/138/389 401/140/391
f 379/134/371 393/139/390 394/141/392
f 387/122/374 401/140/391 402/142/393
f 380/118/372 394/141/392 395/143/394
f 373/120/373 449/144/285 388/145/395
f 418/146/287 387/122/374 402/142/393
f 381/123/375 395/143/394 396/147/396
f 373/120/373 389/148/397 374/124/376
f 382/125/377 396/147/396 397/149/398
f 374/124/376 390/150/399 375/126/378
f 383/127/379 397/149/398 398/135/386
f 375/126/378 391/151/400 376/128/380
f 388/145/395 449/152/285 403/153/401
f 418/154/287 402/142/393 417/155/402
f 396/147/396 410/168/403 411/156/404
f 388/145/395 404/157/405 389/148/397
f 397/149/398 411/156/404 412/158/406
f 389/148/397 405/159/407 390/150/399
f 398/135/386 412/158/406 413/160/408
f 390/150/399 406/161/409 391/151/400
f 399/136/387 413/160/408 414/162/410
f 391/151/400 407/163/411 392/137/388
f 400/138/389 414/162/410 415/164/412
f 393/139/390 407/163/411 408/165/413
f 401/140/391 415/164/412 416/166/414
f 394/141/392 408/165/413 409/167/415
f 402/142/393 416/166/414 417/155/402
f 395/143/394 409/167/415 410/168/403
f 407/163/411 422/184/416 423/169/417
f 415/164/412 430/185/418 431/170/419
f 408/165/413 423/169/417 424/171/420
f 416/166/414 431/170/419 432/172/421
f 409/167/415 424/171/420 425/173/422
f 417/155/402 432/172/421 433/174/423
f 410/168/403 425/173/422 426/175/424
f 403/153/401 449/176/285 419/177/425
f 418/178/287 417/155/402 433/174/423
f 411/156/404 426/175/424 427/179/426
f 403/153/401 420/180/427 404/157/405
f 412/158/406 427/179/426 428/181/428
f 405/159/407 420/180/427 421/182/429
f 413/160/408 428/181/428 429/183/430
f 406/161/409 421/182/429 422/184/416
f 414/162/410 429/183/430 430/185/418
f 427/179/426 441/199/431 442/186/432
f 420/180/427 434/201/433 435/187/434
f 428/181/428 442/186/432 443/188/435
f 421/182/429 435/187/434 436/189/436
f 428/181/428 444/190/437 429/183/430
f 422/184/416 436/189/436 437/191/438
f 429/183/430 445/192/439 430/185/418
f 423/169/417 437/191/438 438/193/440
f 430/185/418 446/194/441 431/170/419
f 424/171/420 438/193/440 439/195/442
f 431/170/419 447/196/443 432/172/421
f 425/173/422 439/195/442 440/197/444
f 432/172/421 448/198/445 433/174/423
f 426/175/424 440/197/444 441/199/431
f 419/177/425 449/200/285 434/201/433
f 418/202/287 433/174/423 448/198/445
f 445/192/439 462/203/446 446/194/441
f 439/195/442 454/219/447 455/204/448
f 446/194/441 463/205/449 447/196/443
f 440/197/444 455/204/448 456/206/450
f 447/196/443 464/207/451 448/198/445
f 441/199/431 456/206/450 457/208/452
f 434/201/433 449/209/285 450/210/453
f 418/211/287 448/198/445 464/207/451
f 441/199/431 458/212/454 442/186/432
f 435/187/434 450/210/453 451/213/455
f 442/186/432 459/214/456 443/188/435
f 436/189/436 451/213/455 452/215/457
f 443/188/435 460/216/458 444/190/437
f 437/191/438 452/215/457 453/217/459
f 444/190/437 461/218/460 445/192/439
f 438/193/440 453/217/459 454/219/447
f 458/220/454 474/221/461 459/222/456
f 452/225/457 466/251/462 467/224/463
f 459/222/456 475/226/464 460/227/458
f 453/228/459 467/224/463 468/229/465
f 460/227/458 476/231/466 461/230/460
f 454/233/447 468/229/465 469/232/467
f 461/230/460 477/234/468 462/235/446
f 455/237/448 469/232/467 470/236/469
f 462/235/446 478/239/470 463/238/449
f 456/240/450 470/236/469 471/241/471
f 463/238/449 479/242/472 464/243/451
f 456/240/450 472/245/473 457/244/452
f 450/246/453 449/247/285 465/248/474
f 418/249/287 464/243/451 479/242/472
f 457/244/452 473/250/475 458/220/454
f 451/223/455 465/248/474 466/251/462
f 477/234/468 493/253/476 478/239/470
f 470/236/469 486/255/477 471/241/471
f 478/239/470 494/256/478 479/242/472
f 471/241/471 487/257/479 472/245/473
f 465/248/474 449/258/285 480/259/480
f 418/260/287 479/242/472 494/256/478
f 472/245/473 488/261/481 473/250/475
f 466/251/462 480/259/480 481/262/482
f 473/250/475 489/263/483 474/221/461
f 466/251/462 482/264/484 467/224/463
f 474/221/461 490/265/485 475/226/464
f 467/224/463 483/266/486 468/229/465
f 475/226/464 491/267/487 476/231/466
f 468/229/465 484/268/488 469/232/467
f 476/231/466 492/252/489 477/234/468
f 469/232/467 485/254/490 470/236/469
f 481/262/482 497/269/491 482/264/484
f 489/263/483 505/270/492 490/265/485
f 482/264/484 498/271/493 483/266/486
f 490/265/485 506/272/494 491/267/487
f 483/266/486 499/273/495 484/268/488
f 492/252/489 506/272/494 507/274/496
f 484/268/488 500/275/497 485/254/490
f 493/253/476 507/274/496 508/276/498
f 485/254/490 501/277/499 486/255/477
f 494/256/478 508/276/498 509/278/500
f 486/255/477 502/279/501 487/257/479
f 480/259/480 449/280/285 495/281/502
f 418/282/287 494/256/478 509/278/500
f 487/257/479 503/283/503 488/261/481
f 480/259/480 496/284/504 481/262/482
f 488/261/481 504/285/505 489/263/483
f 500/275/497 277/16/279 501/277/499
f 509/278/500 281/13/276 282/18/280
f 501/277/499 512/19/283 502/279/501
f 495/281/502 449/286/285 273/21/284
f 418/287/287 509/278/500 282/18/280
f 502/279/501 278/26/289 503/283/503
f 495/281/502 274/28/291 496/284/504
f 503/283/503 513/29/293 504/285/505
f 496/284/504 510/1/264 497/269/491
f 504/285/505 279/32/295 505/270/492
f 497/269/491 275/3/266 498/271/493
f 506/272/494 279/32/295 514/4/267
f 498/271/493 511/7/271 499/273/495
f 507/274/496 514/4/267 280/10/272
f 499/273/495 276/12/275 500/275/497
f 508/276/498 280/10/272 281/13/276
f 238/1/1 13/31/31 14/2/2
f 242/4/4 7/32/32 21/5/5
f 239/7/7 3/3/3 14/2/2
f 242/4/4 22/6/6 23/9/9
f 239/7/7 15/8/8 16/11/11
f 9/13/13 8/10/10 23/9/9
f 4/12/12 16/11/11 17/15/15
f 9/13/13 24/14/14 25/17/17
f 240/19/19 5/16/16 17/15/15
f 240/19/19 18/20/20 19/25/25
f 1/21/21 11/23/23 12/27/27
f 241/29/29 6/26/26 19/25/25
f 238/1/1 2/28/28 12/27/27
f 241/29/29 20/30/30 21/5/5
f 19/25/25 34/48/46 35/33/33
f 12/27/27 27/49/47 28/34/34
f 20/30/30 35/33/33 36/35/35
f 13/31/31 28/34/34 29/36/36
f 21/5/5 36/35/35 37/37/37
f 14/2/2 29/36/36 30/38/38
f 23/9/9 22/6/6 37/37/37
f 15/8/8 30/38/38 31/40/40
f 24/14/14 23/9/9 38/39/39
f 16/11/11 31/40/40 32/42/42
f 24/14/14 39/41/41 40/43/43
f 17/15/15 32/42/42 33/44/44
f 18/20/20 33/44/44 34/48/46
f 11/23/23 26/46/45 27/49/47
f 39/41/41 38/39/39 53/50/48
f 31/40/40 46/66/62 47/52/50
f 40/43/43 39/41/41 54/51/49
f 32/42/42 47/52/50 48/54/52
f 33/44/44 48/54/52 49/58/54
f 26/46/45 41/56/53 42/59/55
f 34/48/46 49/58/54 50/60/56
f 27/49/47 42/59/55 43/61/57
f 35/33/33 50/60/56 51/62/58
f 28/34/34 43/61/57 44/63/59
f 37/37/37 36/35/35 51/62/58
f 29/36/36 44/63/59 45/65/61
f 37/37/37 52/64/60 53/50/48
f 30/38/38 45/65/61 46/66/62
f 50/60/56 65/82/76 66/67/63
f 43/61/57 58/83/77 59/68/64
f 51/62/58 66/67/63 67/69/65
f 44/63/59 59/68/64 60/70/66
f 53/50/48 52/64/60 67/69/65
f 45/65/61 60/70/66 61/72/68
f 53/50/48 68/71/67 69/73/69
f 47/52/50 46/66/62 61/72/68
f 55/53/51 54/51/49 69/73/69
f 47/52/50 62/74/70 63/76/72
f 48/54/52 63/76/72 64/80/74
f 41/56/53 56/78/73 57/81/75
f 49/58/54 64/80/74 65/82/76
f 43/61/57 42/59/55 57/81/75
f 70/75/71 69/73/69 84/84/78
f 62/74/70 77/100/92 78/86/80
f 64/80/74 63/76/72 78/86/80
f 56/78/73 71/88/81 72/91/83
f 64/80/74 79/90/82 80/92/84
f 58/83/77 57/81/75 72/91/83
f 65/82/76 80/92/84 81/94/86
f 58/83/77 73/93/85 74/95/87
f 66/67/63 81/94/86 82/96/88
f 59/68/64 74/95/87 75/97/89
f 67/69/65 82/96/88 83/98/90
f 61/72/68 60/70/66 75/97/89
f 69/73/69 68/71/67 83/98/90
f 61/72/68 76/99/91 77/100/92
f 74/95/87 73/93/85 88/101/93
f 82/96/88 81/94/86 96/103/95
f 74/95/87 89/102/94 90/105/97
f 82/96/88 97/104/96 98/106/98
f 75/97/89 90/105/97 91/107/99
f 84/84/78 83/98/90 98/106/98
f 76/99/91 91/107/99 92/109/101
f 84/84/78 99/108/100 100/110/102
f 77/100/92 92/109/101 93/111/103
f 79/90/82 78/86/80 93/111/103
f 72/91/83 71/88/81 86/113/104
f 79/90/82 94/115/105 95/117/107
f 72/91/83 87/116/106 88/101/93
f 80/92/84 95/117/107 96/103/95
f 92/109/101 107/134/122 108/118/108
f 93/111/103 108/118/108 109/123/111
f 87/116/106 86/113/104 101/120/109
f 94/115/105 109/123/111 110/125/113
f 87/116/106 102/124/112 103/126/114
f 95/117/107 110/125/113 111/127/115
f 89/102/94 88/101/93 103/126/114
f 97/104/96 96/103/95 111/127/115
f 89/102/94 104/128/116 105/130/118
f 97/104/96 112/129/117 113/131/119
f 90/105/97 105/130/118 106/132/120
f 98/106/98 113/131/119 114/133/121
f 91/107/99 106/132/120 107/134/122
f 99/108/100 114/133/121 115/122/110
f 112/129/117 111/127/115 126/135/123
f 104/128/116 119/151/137 120/137/125
f 112/129/117 127/136/124 128/138/126
f 105/130/118 120/137/125 121/139/127
f 113/131/119 128/138/126 129/140/128
f 107/134/122 106/132/120 121/139/127
f 114/133/121 129/140/128 130/142/130
f 108/118/108 107/134/122 122/141/129
f 108/118/108 123/143/131 124/147/133
f 101/120/109 116/145/132 117/148/134
f 109/123/111 124/147/133 125/149/135
f 102/124/112 117/148/134 118/150/136
f 110/125/113 125/149/135 126/135/123
f 104/128/116 103/126/114 118/150/136
f 123/143/131 138/168/152 139/156/140
f 116/145/132 131/153/138 132/157/141
f 124/147/133 139/156/140 140/158/142
f 117/148/134 132/157/141 133/159/143
f 125/149/135 140/158/142 141/160/144
f 119/151/137 118/150/136 133/159/143
f 127/136/124 126/135/123 141/160/144
f 119/151/137 134/161/145 135/163/147
f 127/136/124 142/162/146 143/164/148
f 121/139/127 120/137/125 135/163/147
f 129/140/128 128/138/126 143/164/148
f 121/139/127 136/165/149 137/167/151
f 129/140/128 144/166/150 145/155/139
f 123/143/131 122/141/129 137/167/151
f 134/161/145 150/184/166 151/169/153
f 142/162/146 158/185/167 159/170/154
f 136/165/149 135/163/147 151/169/153
f 143/164/148 159/170/154 160/172/156
f 136/165/149 152/171/155 153/173/157
f 144/166/150 160/172/156 161/174/158
f 138/168/152 137/167/151 153/173/157
f 138/168/152 154/175/159 155/179/161
f 132/157/141 131/153/138 147/177/160
f 139/156/140 155/179/161 156/181/163
f 132/157/141 148/180/162 149/182/164
f 140/158/142 156/181/163 157/183/165
f 134/161/145 133/159/143 149/182/164
f 141/160/144 157/183/165 158/185/167
f 154/175/159 169/199/181 170/186/168
f 147/177/160 162/201/182 163/187/169
f 155/179/161 170/186/168 171/188/170
f 148/180/162 163/187/169 164/189/171
f 156/181/163 171/188/170 172/190/172
f 150/184/166 149/182/164 164/189/171
f 158/185/167 157/183/165 172/190/172
f 150/184/166 165/191/173 166/193/175
f 158/185/167 173/192/174 174/194/176
f 151/169/153 166/193/175 167/195/177
f 160/172/156 159/170/154 174/194/176
f 152/171/155 167/195/177 168/197/179
f 160/172/156 175/196/178 176/198/180
f 154/175/159 153/173/157 168/197/179
f 173/192/174 189/218/196 190/203/183
f 166/193/175 182/219/197 183/204/184
f 175/196/178 174/194/176 190/203/183
f 167/195/177 183/204/184 184/206/186
f 175/196/178 191/205/185 192/207/187
f 169/199/181 168/197/179 184/206/186
f 169/199/181 185/208/188 186/212/190
f 162/201/182 178/210/189 179/213/191
f 170/186/168 186/212/190 187/214/192
f 163/187/169 179/213/191 180/215/193
f 171/188/170 187/214/192 188/216/194
f 165/191/173 164/189/171 180/215/193
f 173/192/174 172/190/172 188/216/194
f 165/191/173 181/217/195 182/219/197
f 186/220/190 201/250/211 202/221/198
f 179/223/191 194/251/212 195/224/199
f 187/222/192 202/221/198 203/226/200
f 181/228/195 180/225/193 195/224/199
f 189/230/196 188/227/194 203/226/200
f 181/228/195 196/229/201 197/232/203
f 189/230/196 204/231/202 205/234/204
f 182/233/197 197/232/203 198/236/205
f 191/238/185 190/235/183 205/234/204
f 184/240/186 183/237/184 198/236/205
f 191/238/185 206/239/206 207/242/208
f 185/244/188 184/240/186 199/241/207
f 185/244/188 200/245/209 201/250/211
f 178/246/189 193/248/210 194/251/212
f 206/239/206 205/234/204 220/252/213
f 199/241/207 198/236/205 213/254/215
f 206/239/206 221/253/214 222/256/217
f 200/245/209 199/241/207 214/255/216
f 200/245/209 215/257/218 216/261/220
f 194/251/212 193/248/210 208/259/219
f 201/250/211 216/261/220 217/263/222
f 194/251/212 209/262/221 210/264/223
f 202/221/198 217/263/222 218/265/224
f 196/229/201 195/224/199 210/264/223
f 203/226/200 218/265/224 219/267/226
f 196/229/201 211/266/225 212/268/227
f 204/231/202 219/267/226 220/252/213
f 197/232/203 212/268/227 213/254/215
f 209/262/221 224/284/241 225/269/228
f 217/263/222 232/285/242 233/270/229
f 211/266/225 210/264/223 225/269/228
f 219/267/226 218/265/224 233/270/229
f 211/266/225 226/271/230 227/273/232
f 219/267/226 234/272/231 235/274/233
f 212/268/227 227/273/232 228/275/234
f 221/253/214 220/252/213 235/274/233
f 213/254/215 228/275/234 229/277/236
f 221/253/214 236/276/235 237/278/237
f 215/257/218 214/255/216 229/277/236
f 215/257/218 230/279/238 231/283/240
f 208/259/219 223/281/239 224/284/241
f 216/261/220 231/283/240 232/285/242
f 229/277/236 228/275/234 4/12/12
f 236/276/235 9/13/13 10/18/18
f 230/279/238 229/277/236 5/16/16
f 230/279/238 240/19/19 6/26/26
f 224/284/241 223/281/239 1/21/21
f 232/285/242 231/283/240 6/26/26
f 225/269/228 224/284/241 2/28/28
f 232/285/242 241/29/29 7/32/32
f 225/269/228 238/1/1 3/3/3
f 234/272/231 233/270/229 7/32/32
f 227/273/232 226/271/230 3/3/3
f 234/272/231 242/4/4 8/10/10
f 227/273/232 239/7/7 4/12/12
f 236/276/235 235/274/233 8/10/10
s 0
f 252/288/506 243/289/506 264/289/506
f 255/292/507 253/296/507 254/289/507
f 254/289/508 262/288/508 261/290/508
f 261/290/509 260/294/509 259/293/509
f 259/293/510 258/297/510 257/291/510
f 257/291/511 256/295/511 255/292/511
f 255/292/244 254/289/244 261/290/244
f 261/290/244 259/293/244 257/291/244
f 243/289/245 252/288/245 262/288/245
f 249/293/246 259/293/246 260/294/246
f 246/295/247 256/295/247 257/291/247
f 244/296/248 243/289/248 254/289/248
f 251/290/249 250/294/249 260/294/249
f 248/297/250 247/291/250 257/291/250
f 244/296/251 253/296/251 255/292/251
f 252/288/252 251/290/252 261/290/252
f 248/297/253 258/297/253 259/293/253
f 246/295/254 245/292/254 255/292/254
s 1
f 264/289/255 263/296/255 265/292/255
f 265/292/255 266/295/255 267/291/255
f 267/291/255 268/297/255 269/293/255
f 269/293/255 270/294/255 271/290/255
f 271/290/255 272/288/255 264/289/255
f 264/289/255 265/292/255 267/291/255
f 267/291/255 269/293/255 271/290/255
s 0
f 250/294/512 270/294/512 269/293/512
f 247/291/513 267/291/513 266/295/513
f 244/296/514 263/296/514 264/289/514
f 250/294/515 251/290/515 271/290/515
f 248/297/516 268/297/516 267/291/516
f 244/296/517 245/292/517 265/292/517
f 252/288/518 272/288/518 271/290/518
f 248/297/519 249/293/519 269/293/519
f 245/292/254 246/295/254 266/295/254
s 1
f 510/1/264 285/31/294 286/2/265
f 514/4/267 279/32/295 293/5/268
f 275/3/266 286/2/265 287/8/270
f 280/10/272 514/4/267 294/6/269
f 511/7/271 287/8/270 288/11/274
f 281/13/276 280/10/272 295/9/273
f 276/12/275 288/11/274 289/15/278
f 282/18/280 281/13/276 296/14/277
f 277/16/279 289/15/278 290/20/282
f 512/19/283 290/20/282 291/25/288
f 273/21/284 283/23/286 284/27/290
f 278/26/289 291/25/288 292/30/292
f 274/28/291 284/27/290 285/31/294
f 513/29/293 292/30/292 293/5/268
f 291/25/288 306/48/309 307/33/296
f 284/27/290 299/49/310 300/34/297
f 292/30/292 307/33/296 308/35/298
f 285/31/294 300/34/297 301/36/299
f 293/5/268 308/35/298 309/37/300
f 286/2/265 301/36/299 302/38/301
f 294/6/269 309/37/300 310/39/302
f 287/8/270 302/38/301 303/40/303
f 295/9/273 310/39/302 311/41/304
f 288/11/274 303/40/303 304/42/305
f 297/17/281 296/14/277 311/41/304
f 289/15/278 304/42/305 305/44/307
f 290/20/282 305/44/307 306/48/309
f 283/23/286 298/46/308 299/49/310
f 310/39/302 325/50/324 326/51/311
f 303/40/303 318/66/325 319/52/312
f 311/41/304 326/51/311 327/53/313
f 304/42/305 319/52/312 320/54/314
f 305/44/307 320/54/314 321/58/316
f 299/49/310 298/46/308 313/56/315
f 306/48/309 321/58/316 322/60/318
f 300/34/297 299/49/310 314/59/317
f 307/33/296 322/60/318 323/62/320
f 301/36/299 300/34/297 315/61/319
f 308/35/298 323/62/320 324/64/322
f 302/38/301 301/36/299 316/63/321
f 309/37/300 324/64/322 325/50/324
f 303/40/303 302/38/301 317/65/323
f 322/60/318 337/82/340 338/67/326
f 316/63/321 315/61/319 330/83/327
f 323/62/320 338/67/326 339/69/329
f 317/65/323 316/63/321 331/68/328
f 324/64/322 339/69/329 340/71/331
f 318/66/325 317/65/323 332/70/330
f 325/50/324 340/71/331 341/73/333
f 319/52/312 318/66/325 333/72/332
f 326/51/311 341/73/333 342/75/335
f 320/54/314 319/52/312 334/74/334
f 320/54/314 335/76/336 336/80/338
f 314/59/317 313/56/315 328/78/337
f 321/58/316 336/80/338 337/82/340
f 315/61/319 314/59/317 329/81/339
f 341/73/333 356/84/355 357/85/341
f 335/76/336 334/74/334 349/100/342
f 336/80/338 335/76/336 350/86/343
f 329/81/339 328/78/337 343/88/344
f 336/80/338 351/90/345 352/92/347
f 330/83/327 329/81/339 344/91/346
f 337/82/340 352/92/347 353/94/349
f 331/68/328 330/83/327 345/93/348
f 338/67/326 353/94/349 354/96/351
f 332/70/330 331/68/328 346/95/350
f 339/69/329 354/96/351 355/98/353
f 333/72/332 332/70/330 347/97/352
f 340/71/331 355/98/353 356/84/355
f 334/74/334 333/72/332 348/99/354
f 346/95/350 345/93/348 360/101/356
f 354/96/351 353/94/349 368/103/358
f 347/97/352 346/95/350 361/102/357
f 355/98/353 354/96/351 369/104/359
f 348/99/354 347/97/352 362/105/360
f 356/84/355 355/98/353 370/106/361
f 349/100/342 348/99/354 363/107/362
f 356/84/355 371/108/363 372/110/365
f 350/86/343 349/100/342 364/109/364
f 351/90/345 350/86/343 365/111/366
f 344/91/346 343/88/344 358/113/367
f 352/92/347 351/90/345 366/115/368
f 345/93/348 344/91/346 359/116/369
f 353/94/349 352/92/347 367/117/370
f 365/111/366 364/109/364 379/134/371
f 366/115/368 365/111/366 380/118/372
f 358/113/367 373/120/373 374/124/376
f 367/117/370 366/115/368 381/123/375
f 359/116/369 374/124/376 375/126/378
f 368/103/358 367/117/370 382/125/377
f 360/101/356 375/126/378 376/128/380
f 369/104/359 368/103/358 383/127/379
f 362/105/360 361/102/357 376/128/380
f 370/106/361 369/104/359 384/129/381
f 363/107/362 362/105/360 377/130/382
f 371/108/363 370/106/361 385/131/383
f 364/109/364 363/107/362 378/132/384
f 372/110/365 371/108/363 386/133/385
f 384/129/381 383/127/379 398/135/386
f 376/128/380 391/151/400 392/137/388
f 385/131/383 384/129/381 399/136/387
f 378/132/384 377/130/382 392/137/388
f 386/133/385 385/131/383 400/138/389
f 379/134/371 378/132/384 393/139/390
f 387/122/374 386/133/385 401/140/391
f 380/118/372 379/134/371 394/141/392
f 381/123/375 380/118/372 395/143/394
f 373/120/373 388/145/395 389/148/397
f 382/125/377 381/123/375 396/147/396
f 374/124/376 389/148/397 390/150/399
f 383/127/379 382/125/377 397/149/398
f 375/126/378 390/150/399 391/151/400
f 396/147/396 395/143/394 410/168/403
f 388/145/395 403/153/401 404/157/405
f 397/149/398 396/147/396 411/156/404
f 389/148/397 404/157/405 405/159/407
f 398/135/386 397/149/398 412/158/406
f 390/150/399 405/159/407 406/161/409
f 399/136/387 398/135/386 413/160/408
f 391/151/400 406/161/409 407/163/411
f 400/138/389 399/136/387 414/162/410
f 393/139/390 392/137/388 407/163/411
f 401/140/391 400/138/389 415/164/412
f 394/141/392 393/139/390 408/165/413
f 402/142/393 401/140/391 416/166/414
f 395/143/394 394/141/392 409/167/415
f 407/163/411 406/161/409 422/184/416
f 415/164/412 414/162/410 430/185/418
f 408/165/413 407/163/411 423/169/417
f 416/166/414 415/164/412 431/170/419
f 409/167/415 408/165/413 424/171/420
f 417/155/402 416/166/414 432/172/421
f 410/168/403 409/167/415 425/173/422
f 411/156/404 410/168/403 426/175/424
f 403/153/401 419/177/425 420/180/427
f 412/158/406 411/156/404 427/179/426
f 405/159/407 404/157/405 420/180/427
f 413/160/408 412/158/406 428/181/428
f 406/161/409 405/159/407 421/182/429
f 414/162/410 413/160/408 429/183/430
f 427/179/426 426/175/424 441/199/431
f 420/180/427 419/177/425 434/201/433
f 428/181/428 427/179/426 442/186/432
f 421/182/429 420/180/427 435/187/434
f 428/181/428 443/188/435 444/190/437
f 422/184/416 421/182/429 436/189/436
f 429/183/430 444/190/437 445/192/439
f 423/169/417 422/184/416 437/191/438
f 430/185/418 445/192/439 446/194/441
f 424/171/420 423/169/417 438/193/440
f 431/170/419 446/194/441 447/196/443
f 425/173/422 424/171/420 439/195/442
f 432/172/421 447/196/443 448/198/445
f 426/175/424 425/173/422 440/197/444
f 445/192/439 461/218/460 462/203/446
f 439/195/442 438/193/440 454/219/447
f 446/194/441 462/203/446 463/205/449
f 440/197/444 439/195/442 455/204/448
f 447/196/443 463/205/449 464/207/451
f 441/199/431 440/197/444 456/206/450
f 441/199/431 457/208/452 458/212/454
f 435/187/434 434/201/433 450/210/453
f 442/186/432 458/212/454 459/214/456
f 436/189/436 435/187/434 451/213/455
f 443/188/435 459/214/456 460/216/458
f 437/191/438 436/189/436 452/215/457
f 444/190/437 460/216/458 461/218/460
f 438/193/440 437/191/438 453/217/459
f 458/220/454 473/250/475 474/221/461
f 452/225/457 451/223/455 466/251/462
f 459/222/456 474/221/461 475/226/464
f 453/228/459 452/225/457 467/224/463
f 460/227/458 475/226/464 476/231/466
f 454/233/447 453/228/459 468/229/465
f 461/230/460 476/231/466 477/234/468
f 455/237/448 454/233/447 469/232/467
f 462/235/446 477/234/468 478/239/470
f 456/240/450 455/237/448 470/236/469
f 463/238/449 478/239/470 479/242/472
f 456/240/450 471/241/471 472/245/473
f 457/244/452 472/245/473 473/250/475
f 451/223/455 450/246/453 465/248/474
f 477/234/468 492/252/489 493/253/476
f 470/236/469 485/254/490 486/255/477
f 478/239/470 493/253/476 494/256/478
f 471/241/471 486/255/477 487/257/479
f 472/245/473 487/257/479 488/261/481
f 466/251/462 465/248/474 480/259/480
f 473/250/475 488/261/481 489/263/483
f 466/251/462 481/262/482 482/264/484
f 474/221/461 489/263/483 490/265/485
f 467/224/463 482/264/484 483/266/486
f 475/226/464 490/265/485 491/267/487
f 468/229/465 483/266/486 484/268/488
f 476/231/466 491/267/487 492/252/489
f 469/232/467 484/268/488 485/254/490
f 481/262/482 496/284/504 497/269/491
f 489/263/483 504/285/505 505/270/492
f 482/264/484 497/269/491 498/271/493
f 490/265/485 505/270/492 506/272/494
f 483/266/486 498/271/493 499/273/495
f 492/252/489 491/267/487 506/272/494
f 484/268/488 499/273/495 500/275/497
f 493/253/476 492/252/489 507/274/496
f 485/254/490 500/275/497 501/277/499
f 494/256/478 493/253/476 508/276/498
f 486/255/477 501/277/499 502/279/501
f 487/257/479 502/279/501 503/283/503
f 480/259/480 495/281/502 496/284/504
f 488/261/481 503/283/503 504/285/505
f 500/275/497 276/12/275 277/16/279
f 509/278/500 508/276/498 281/13/276
f 501/277/499 277/16/279 512/19/283
f 502/279/501 512/19/283 278/26/289
f 495/281/502 273/21/284 274/28/291
f 503/283/503 278/26/289 513/29/293
f 496/284/504 274/28/291 510/1/264
f 504/285/505 513/29/293 279/32/295
f 497/269/491 510/1/264 275/3/266
f 506/272/494 505/270/492 279/32/295
f 498/271/493 275/3/266 511/7/271
f 507/274/496 506/272/494 514/4/267
f 499/273/495 511/7/271 276/12/275
f 508/276/498 507/274/496 280/10/272
